<svg xmlns="http://www.w3.org/2000/svg" xmlns:xlink="http://www.w3.org/1999/xlink" contentStyleType="text/css" data-diagram-type="CLASS" height="617px" preserveAspectRatio="none" style="width:4361px;height:617px;background:#FFFFFF;" version="1.1" viewBox="0 0 4361 617" width="4361px" zoomAndPan="magnify"><defs/><g><!--cluster base--><g class="cluster" data-entity="base" data-source-line="11" data-uid="ent0002" id="cluster_base"><path d="M1290,6 L1400.0176,6 A7.5,7.5 0 0 1 1405.0176,11 L1412.0176,27.9609 L1570,27.9609 A5,5 0 0 1 1575,32.9609 L1575,343.5 A5,5 0 0 1 1570,348.5 L1290,348.5 A5,5 0 0 1 1285,343.5 L1285,11 A5,5 0 0 1 1290,6" fill="none" style="stroke:#000000;stroke-width:1.5;"/><line style="stroke:#000000;stroke-width:1.5;" x1="1285" x2="1412.0176" y1="27.9609" y2="27.9609"/><text fill="#000000" font-family="sans-serif" font-size="12" font-weight="bold" lengthAdjust="spacing" textLength="114.0176" x="1289" y="20.9492">ru.ifmo.se.pokemon</text></g><!--cluster moves--><g class="cluster" data-entity="moves" data-source-line="22" data-uid="ent0010" id="cluster_moves"><path d="M11,372.5 L45.0215,372.5 A7.5,7.5 0 0 1 50.0215,377.5 L57.0215,394.4609 L3544,394.4609 A5,5 0 0 1 3549,399.4609 L3549,605.5 A5,5 0 0 1 3544,610.5 L11,610.5 A5,5 0 0 1 6,605.5 L6,377.5 A5,5 0 0 1 11,372.5" fill="none" style="stroke:#000000;stroke-width:1.5;"/><line style="stroke:#000000;stroke-width:1.5;" x1="6" x2="57.0215" y1="394.4609" y2="394.4609"/><text fill="#000000" font-family="sans-serif" font-size="12" font-weight="bold" lengthAdjust="spacing" textLength="38.0215" x="10" y="387.4492">moves</text></g><!--cluster physical--><g class="cluster" data-entity="physical" data-source-line="25" data-uid="ent0011" id="cluster_physical"><path d="M35,414.5 L79.0234,414.5 A7.5,7.5 0 0 1 84.0234,419.5 L91.0234,436.4609 L910,436.4609 A5,5 0 0 1 915,441.4609 L915,581.5 A5,5 0 0 1 910,586.5 L35,586.5 A5,5 0 0 1 30,581.5 L30,419.5 A5,5 0 0 1 35,414.5" fill="none" style="stroke:#000000;stroke-width:1.5;"/><line style="stroke:#000000;stroke-width:1.5;" x1="30" x2="91.0234" y1="436.4609" y2="436.4609"/><text fill="#000000" font-family="sans-serif" font-size="12" font-weight="bold" lengthAdjust="spacing" textLength="48.0234" x="34" y="429.4492">physical</text></g><!--cluster special_damage--><g class="cluster" data-entity="special_damage" data-source-line="46" data-uid="ent0015" id="cluster_special_damage"><path d="M2504,423.5 L2592.7188,423.5 A7.5,7.5 0 0 1 2597.7188,428.5 L2604.7188,445.4609 L3520,445.4609 A5,5 0 0 1 3525,450.4609 L3525,572.5 A5,5 0 0 1 3520,577.5 L2504,577.5 A5,5 0 0 1 2499,572.5 L2499,428.5 A5,5 0 0 1 2504,423.5" fill="none" style="stroke:#000000;stroke-width:1.5;"/><line style="stroke:#000000;stroke-width:1.5;" x1="2499" x2="2604.7188" y1="445.4609" y2="445.4609"/><text fill="#000000" font-family="sans-serif" font-size="12" font-weight="bold" lengthAdjust="spacing" textLength="92.7188" x="2503" y="438.4492">special_damage</text></g><!--cluster status--><g class="cluster" data-entity="status" data-source-line="67" data-uid="ent0019" id="cluster_status"><path d="M944,423.5 L975.3438,423.5 A7.5,7.5 0 0 1 980.3438,428.5 L987.3438,445.4609 L2470,445.4609 A5,5 0 0 1 2475,450.4609 L2475,572.5 A5,5 0 0 1 2470,577.5 L944,577.5 A5,5 0 0 1 939,572.5 L939,428.5 A5,5 0 0 1 944,423.5" fill="none" style="stroke:#000000;stroke-width:1.5;"/><line style="stroke:#000000;stroke-width:1.5;" x1="939" x2="987.3438" y1="445.4609" y2="445.4609"/><text fill="#000000" font-family="sans-serif" font-size="12" font-weight="bold" lengthAdjust="spacing" textLength="35.3438" x="943" y="438.4492">status</text></g><!--cluster pokemons--><g class="cluster" data-entity="pokemons" data-source-line="101" data-uid="ent0025" id="cluster_pokemons"><path d="M3578,114 L3634.0117,114 A7.5,7.5 0 0 1 3639.0117,119 L3646.0117,135.9609 L4349,135.9609 A5,5 0 0 1 4354,140.9609 L4354,554 A5,5 0 0 1 4349,559 L3578,559 A5,5 0 0 1 3573,554 L3573,119 A5,5 0 0 1 3578,114" fill="none" style="stroke:#000000;stroke-width:1.5;"/><line style="stroke:#000000;stroke-width:1.5;" x1="3573" x2="3646.0117" y1="135.9609" y2="135.9609"/><text fill="#000000" font-family="sans-serif" font-size="12" font-weight="bold" lengthAdjust="spacing" textLength="60.0117" x="3577" y="128.9492">pokemons</text></g><!--class Pokemon--><g class="entity" data-entity="Pokemon" data-source-line="12" data-uid="ent0003" id="entity_Pokemon"><rect fill="#F1F1F1" height="48" rx="5" ry="5" style="stroke:#181818;stroke-width:0.5;" width="74.2461" x="1485" y="40"/><ellipse cx="1500" cy="56" fill="#ADD1B2" rx="11" ry="11" style="stroke:#181818;stroke-width:1;"/><path d="M1502.7656,51.875 Q1502.9219,51.6563 1503.1094,51.5469 Q1503.2969,51.4375 1503.5156,51.4375 Q1503.8906,51.4375 1504.125,51.7031 Q1504.3594,51.9531 1504.3594,52.5625 L1504.3594,54.0156 Q1504.3594,54.625 1504.125,54.8906 Q1503.8906,55.1563 1503.5156,55.1563 Q1503.1719,55.1563 1502.9688,54.9531 Q1502.7656,54.7656 1502.6563,54.25 Q1502.6094,53.8906 1502.4219,53.7031 Q1502.0938,53.3281 1501.4844,53.1094 Q1500.875,52.8906 1500.25,52.8906 Q1499.4844,52.8906 1498.8438,53.2188 Q1498.2188,53.5469 1497.7188,54.2969 Q1497.2344,55.0469 1497.2344,56.0781 L1497.2344,57.1719 Q1497.2344,58.4063 1498.125,59.2344 Q1499.0156,60.0469 1500.6094,60.0469 Q1501.5469,60.0469 1502.2031,59.7969 Q1502.5938,59.6406 1503.0156,59.2031 Q1503.2813,58.9375 1503.4219,58.8594 Q1503.5781,58.7813 1503.7813,58.7813 Q1504.1094,58.7813 1504.3594,59.0469 Q1504.625,59.2969 1504.625,59.6406 Q1504.625,59.9844 1504.2813,60.3906 Q1503.7813,60.9688 1502.9844,61.2969 Q1501.9063,61.75 1500.6094,61.75 Q1499.0938,61.75 1497.8906,61.125 Q1496.9063,60.625 1496.2188,59.5625 Q1495.5313,58.4844 1495.5313,57.2031 L1495.5313,56.0469 Q1495.5313,54.7188 1496.1406,53.5781 Q1496.7656,52.4219 1497.8594,51.8125 Q1498.9531,51.1875 1500.1875,51.1875 Q1500.9219,51.1875 1501.5625,51.3594 Q1502.2188,51.5156 1502.7656,51.875 Z " fill="#000000"/><text fill="#000000" font-family="sans-serif" font-size="10" lengthAdjust="spacing" textLength="42.2461" x="1514" y="60.1406">Pokemon</text><line style="stroke:#181818;stroke-width:0.5;" x1="1486" x2="1558.2461" y1="72" y2="72"/><line style="stroke:#181818;stroke-width:0.5;" x1="1486" x2="1558.2461" y1="80" y2="80"/></g><!--class Move--><g class="entity" data-entity="Move" data-source-line="13" data-uid="ent0004" id="entity_Move"><rect fill="#F1F1F1" height="48" rx="5" ry="5" style="stroke:#181818;stroke-width:0.5;" width="56.4531" x="1301" y="40"/><ellipse cx="1316" cy="56" fill="#ADD1B2" rx="11" ry="11" style="stroke:#181818;stroke-width:1;"/><path d="M1318.7656,51.875 Q1318.9219,51.6563 1319.1094,51.5469 Q1319.2969,51.4375 1319.5156,51.4375 Q1319.8906,51.4375 1320.125,51.7031 Q1320.3594,51.9531 1320.3594,52.5625 L1320.3594,54.0156 Q1320.3594,54.625 1320.125,54.8906 Q1319.8906,55.1563 1319.5156,55.1563 Q1319.1719,55.1563 1318.9688,54.9531 Q1318.7656,54.7656 1318.6563,54.25 Q1318.6094,53.8906 1318.4219,53.7031 Q1318.0938,53.3281 1317.4844,53.1094 Q1316.875,52.8906 1316.25,52.8906 Q1315.4844,52.8906 1314.8438,53.2188 Q1314.2188,53.5469 1313.7188,54.2969 Q1313.2344,55.0469 1313.2344,56.0781 L1313.2344,57.1719 Q1313.2344,58.4063 1314.125,59.2344 Q1315.0156,60.0469 1316.6094,60.0469 Q1317.5469,60.0469 1318.2031,59.7969 Q1318.5938,59.6406 1319.0156,59.2031 Q1319.2813,58.9375 1319.4219,58.8594 Q1319.5781,58.7813 1319.7813,58.7813 Q1320.1094,58.7813 1320.3594,59.0469 Q1320.625,59.2969 1320.625,59.6406 Q1320.625,59.9844 1320.2813,60.3906 Q1319.7813,60.9688 1318.9844,61.2969 Q1317.9063,61.75 1316.6094,61.75 Q1315.0938,61.75 1313.8906,61.125 Q1312.9063,60.625 1312.2188,59.5625 Q1311.5313,58.4844 1311.5313,57.2031 L1311.5313,56.0469 Q1311.5313,54.7188 1312.1406,53.5781 Q1312.7656,52.4219 1313.8594,51.8125 Q1314.9531,51.1875 1316.1875,51.1875 Q1316.9219,51.1875 1317.5625,51.3594 Q1318.2188,51.5156 1318.7656,51.875 Z " fill="#000000"/><text fill="#000000" font-family="sans-serif" font-size="10" lengthAdjust="spacing" textLength="24.4531" x="1330" y="60.1406">Move</text><line style="stroke:#181818;stroke-width:0.5;" x1="1302" x2="1356.4531" y1="72" y2="72"/><line style="stroke:#181818;stroke-width:0.5;" x1="1302" x2="1356.4531" y1="80" y2="80"/></g><!--class DamageMove--><g class="entity" data-entity="DamageMove" data-source-line="14" data-uid="ent0005" id="entity_DamageMove"><rect fill="#F1F1F1" height="48" rx="5" ry="5" style="stroke:#181818;stroke-width:0.5;" width="94.251" x="1301" y="157.5"/><ellipse cx="1316" cy="173.5" fill="#ADD1B2" rx="11" ry="11" style="stroke:#181818;stroke-width:1;"/><path d="M1318.7656,169.375 Q1318.9219,169.1563 1319.1094,169.0469 Q1319.2969,168.9375 1319.5156,168.9375 Q1319.8906,168.9375 1320.125,169.2031 Q1320.3594,169.4531 1320.3594,170.0625 L1320.3594,171.5156 Q1320.3594,172.125 1320.125,172.3906 Q1319.8906,172.6563 1319.5156,172.6563 Q1319.1719,172.6563 1318.9688,172.4531 Q1318.7656,172.2656 1318.6563,171.75 Q1318.6094,171.3906 1318.4219,171.2031 Q1318.0938,170.8281 1317.4844,170.6094 Q1316.875,170.3906 1316.25,170.3906 Q1315.4844,170.3906 1314.8438,170.7188 Q1314.2188,171.0469 1313.7188,171.7969 Q1313.2344,172.5469 1313.2344,173.5781 L1313.2344,174.6719 Q1313.2344,175.9063 1314.125,176.7344 Q1315.0156,177.5469 1316.6094,177.5469 Q1317.5469,177.5469 1318.2031,177.2969 Q1318.5938,177.1406 1319.0156,176.7031 Q1319.2813,176.4375 1319.4219,176.3594 Q1319.5781,176.2813 1319.7813,176.2813 Q1320.1094,176.2813 1320.3594,176.5469 Q1320.625,176.7969 1320.625,177.1406 Q1320.625,177.4844 1320.2813,177.8906 Q1319.7813,178.4688 1318.9844,178.7969 Q1317.9063,179.25 1316.6094,179.25 Q1315.0938,179.25 1313.8906,178.625 Q1312.9063,178.125 1312.2188,177.0625 Q1311.5313,175.9844 1311.5313,174.7031 L1311.5313,173.5469 Q1311.5313,172.2188 1312.1406,171.0781 Q1312.7656,169.9219 1313.8594,169.3125 Q1314.9531,168.6875 1316.1875,168.6875 Q1316.9219,168.6875 1317.5625,168.8594 Q1318.2188,169.0156 1318.7656,169.375 Z " fill="#000000"/><text fill="#000000" font-family="sans-serif" font-size="10" lengthAdjust="spacing" textLength="62.251" x="1330" y="177.6406">DamageMove</text><line style="stroke:#181818;stroke-width:0.5;" x1="1302" x2="1394.251" y1="189.5" y2="189.5"/><line style="stroke:#181818;stroke-width:0.5;" x1="1302" x2="1394.251" y1="197.5" y2="197.5"/></g><!--class StatusMove--><g class="entity" data-entity="StatusMove" data-source-line="15" data-uid="ent0006" id="entity_StatusMove"><rect fill="#F1F1F1" height="48" rx="5" ry="5" style="stroke:#181818;stroke-width:0.5;" width="84.8027" x="1473.5" y="157.5"/><ellipse cx="1488.5" cy="173.5" fill="#ADD1B2" rx="11" ry="11" style="stroke:#181818;stroke-width:1;"/><path d="M1491.2656,169.375 Q1491.4219,169.1563 1491.6094,169.0469 Q1491.7969,168.9375 1492.0156,168.9375 Q1492.3906,168.9375 1492.625,169.2031 Q1492.8594,169.4531 1492.8594,170.0625 L1492.8594,171.5156 Q1492.8594,172.125 1492.625,172.3906 Q1492.3906,172.6563 1492.0156,172.6563 Q1491.6719,172.6563 1491.4688,172.4531 Q1491.2656,172.2656 1491.1563,171.75 Q1491.1094,171.3906 1490.9219,171.2031 Q1490.5938,170.8281 1489.9844,170.6094 Q1489.375,170.3906 1488.75,170.3906 Q1487.9844,170.3906 1487.3438,170.7188 Q1486.7188,171.0469 1486.2188,171.7969 Q1485.7344,172.5469 1485.7344,173.5781 L1485.7344,174.6719 Q1485.7344,175.9063 1486.625,176.7344 Q1487.5156,177.5469 1489.1094,177.5469 Q1490.0469,177.5469 1490.7031,177.2969 Q1491.0938,177.1406 1491.5156,176.7031 Q1491.7813,176.4375 1491.9219,176.3594 Q1492.0781,176.2813 1492.2813,176.2813 Q1492.6094,176.2813 1492.8594,176.5469 Q1493.125,176.7969 1493.125,177.1406 Q1493.125,177.4844 1492.7813,177.8906 Q1492.2813,178.4688 1491.4844,178.7969 Q1490.4063,179.25 1489.1094,179.25 Q1487.5938,179.25 1486.3906,178.625 Q1485.4063,178.125 1484.7188,177.0625 Q1484.0313,175.9844 1484.0313,174.7031 L1484.0313,173.5469 Q1484.0313,172.2188 1484.6406,171.0781 Q1485.2656,169.9219 1486.3594,169.3125 Q1487.4531,168.6875 1488.6875,168.6875 Q1489.4219,168.6875 1490.0625,168.8594 Q1490.7188,169.0156 1491.2656,169.375 Z " fill="#000000"/><text fill="#000000" font-family="sans-serif" font-size="10" lengthAdjust="spacing" textLength="52.8027" x="1502.5" y="177.6406">StatusMove</text><line style="stroke:#181818;stroke-width:0.5;" x1="1474.5" x2="1557.3027" y1="189.5" y2="189.5"/><line style="stroke:#181818;stroke-width:0.5;" x1="1474.5" x2="1557.3027" y1="197.5" y2="197.5"/></g><!--class PhysicalMove--><g class="entity" data-entity="PhysicalMove" data-source-line="16" data-uid="ent0007" id="entity_PhysicalMove"><rect fill="#F1F1F1" height="48" rx="5" ry="5" style="stroke:#181818;stroke-width:0.5;" width="93.6895" x="1301" y="284.5"/><ellipse cx="1316" cy="300.5" fill="#ADD1B2" rx="11" ry="11" style="stroke:#181818;stroke-width:1;"/><path d="M1318.7656,296.375 Q1318.9219,296.1563 1319.1094,296.0469 Q1319.2969,295.9375 1319.5156,295.9375 Q1319.8906,295.9375 1320.125,296.2031 Q1320.3594,296.4531 1320.3594,297.0625 L1320.3594,298.5156 Q1320.3594,299.125 1320.125,299.3906 Q1319.8906,299.6563 1319.5156,299.6563 Q1319.1719,299.6563 1318.9688,299.4531 Q1318.7656,299.2656 1318.6563,298.75 Q1318.6094,298.3906 1318.4219,298.2031 Q1318.0938,297.8281 1317.4844,297.6094 Q1316.875,297.3906 1316.25,297.3906 Q1315.4844,297.3906 1314.8438,297.7188 Q1314.2188,298.0469 1313.7188,298.7969 Q1313.2344,299.5469 1313.2344,300.5781 L1313.2344,301.6719 Q1313.2344,302.9063 1314.125,303.7344 Q1315.0156,304.5469 1316.6094,304.5469 Q1317.5469,304.5469 1318.2031,304.2969 Q1318.5938,304.1406 1319.0156,303.7031 Q1319.2813,303.4375 1319.4219,303.3594 Q1319.5781,303.2813 1319.7813,303.2813 Q1320.1094,303.2813 1320.3594,303.5469 Q1320.625,303.7969 1320.625,304.1406 Q1320.625,304.4844 1320.2813,304.8906 Q1319.7813,305.4688 1318.9844,305.7969 Q1317.9063,306.25 1316.6094,306.25 Q1315.0938,306.25 1313.8906,305.625 Q1312.9063,305.125 1312.2188,304.0625 Q1311.5313,302.9844 1311.5313,301.7031 L1311.5313,300.5469 Q1311.5313,299.2188 1312.1406,298.0781 Q1312.7656,296.9219 1313.8594,296.3125 Q1314.9531,295.6875 1316.1875,295.6875 Q1316.9219,295.6875 1317.5625,295.8594 Q1318.2188,296.0156 1318.7656,296.375 Z " fill="#000000"/><text fill="#000000" font-family="sans-serif" font-size="10" lengthAdjust="spacing" textLength="61.6895" x="1330" y="304.6406">PhysicalMove</text><line style="stroke:#181818;stroke-width:0.5;" x1="1302" x2="1393.6895" y1="316.5" y2="316.5"/><line style="stroke:#181818;stroke-width:0.5;" x1="1302" x2="1393.6895" y1="324.5" y2="324.5"/></g><!--class SpecialMove--><g class="entity" data-entity="SpecialMove" data-source-line="17" data-uid="ent0008" id="entity_SpecialMove"><rect fill="#F1F1F1" height="48" rx="5" ry="5" style="stroke:#181818;stroke-width:0.5;" width="89.251" x="1466.5" y="284.5"/><ellipse cx="1481.5" cy="300.5" fill="#ADD1B2" rx="11" ry="11" style="stroke:#181818;stroke-width:1;"/><path d="M1484.2656,296.375 Q1484.4219,296.1563 1484.6094,296.0469 Q1484.7969,295.9375 1485.0156,295.9375 Q1485.3906,295.9375 1485.625,296.2031 Q1485.8594,296.4531 1485.8594,297.0625 L1485.8594,298.5156 Q1485.8594,299.125 1485.625,299.3906 Q1485.3906,299.6563 1485.0156,299.6563 Q1484.6719,299.6563 1484.4688,299.4531 Q1484.2656,299.2656 1484.1563,298.75 Q1484.1094,298.3906 1483.9219,298.2031 Q1483.5938,297.8281 1482.9844,297.6094 Q1482.375,297.3906 1481.75,297.3906 Q1480.9844,297.3906 1480.3438,297.7188 Q1479.7188,298.0469 1479.2188,298.7969 Q1478.7344,299.5469 1478.7344,300.5781 L1478.7344,301.6719 Q1478.7344,302.9063 1479.625,303.7344 Q1480.5156,304.5469 1482.1094,304.5469 Q1483.0469,304.5469 1483.7031,304.2969 Q1484.0938,304.1406 1484.5156,303.7031 Q1484.7813,303.4375 1484.9219,303.3594 Q1485.0781,303.2813 1485.2813,303.2813 Q1485.6094,303.2813 1485.8594,303.5469 Q1486.125,303.7969 1486.125,304.1406 Q1486.125,304.4844 1485.7813,304.8906 Q1485.2813,305.4688 1484.4844,305.7969 Q1483.4063,306.25 1482.1094,306.25 Q1480.5938,306.25 1479.3906,305.625 Q1478.4063,305.125 1477.7188,304.0625 Q1477.0313,302.9844 1477.0313,301.7031 L1477.0313,300.5469 Q1477.0313,299.2188 1477.6406,298.0781 Q1478.2656,296.9219 1479.3594,296.3125 Q1480.4531,295.6875 1481.6875,295.6875 Q1482.4219,295.6875 1483.0625,295.8594 Q1483.7188,296.0156 1484.2656,296.375 Z " fill="#000000"/><text fill="#000000" font-family="sans-serif" font-size="10" lengthAdjust="spacing" textLength="57.251" x="1495.5" y="304.6406">SpecialMove</text><line style="stroke:#181818;stroke-width:0.5;" x1="1467.5" x2="1554.751" y1="316.5" y2="316.5"/><line style="stroke:#181818;stroke-width:0.5;" x1="1467.5" x2="1554.751" y1="324.5" y2="324.5"/></g><!--class Effect--><g class="entity" data-entity="Effect" data-source-line="18" data-uid="ent0009" id="entity_Effect"><rect fill="#F1F1F1" height="48" rx="5" ry="5" style="stroke:#181818;stroke-width:0.5;" width="57.5664" x="1392" y="40"/><ellipse cx="1407" cy="56" fill="#ADD1B2" rx="11" ry="11" style="stroke:#181818;stroke-width:1;"/><path d="M1409.7656,51.875 Q1409.9219,51.6563 1410.1094,51.5469 Q1410.2969,51.4375 1410.5156,51.4375 Q1410.8906,51.4375 1411.125,51.7031 Q1411.3594,51.9531 1411.3594,52.5625 L1411.3594,54.0156 Q1411.3594,54.625 1411.125,54.8906 Q1410.8906,55.1563 1410.5156,55.1563 Q1410.1719,55.1563 1409.9688,54.9531 Q1409.7656,54.7656 1409.6563,54.25 Q1409.6094,53.8906 1409.4219,53.7031 Q1409.0938,53.3281 1408.4844,53.1094 Q1407.875,52.8906 1407.25,52.8906 Q1406.4844,52.8906 1405.8438,53.2188 Q1405.2188,53.5469 1404.7188,54.2969 Q1404.2344,55.0469 1404.2344,56.0781 L1404.2344,57.1719 Q1404.2344,58.4063 1405.125,59.2344 Q1406.0156,60.0469 1407.6094,60.0469 Q1408.5469,60.0469 1409.2031,59.7969 Q1409.5938,59.6406 1410.0156,59.2031 Q1410.2813,58.9375 1410.4219,58.8594 Q1410.5781,58.7813 1410.7813,58.7813 Q1411.1094,58.7813 1411.3594,59.0469 Q1411.625,59.2969 1411.625,59.6406 Q1411.625,59.9844 1411.2813,60.3906 Q1410.7813,60.9688 1409.9844,61.2969 Q1408.9063,61.75 1407.6094,61.75 Q1406.0938,61.75 1404.8906,61.125 Q1403.9063,60.625 1403.2188,59.5625 Q1402.5313,58.4844 1402.5313,57.2031 L1402.5313,56.0469 Q1402.5313,54.7188 1403.1406,53.5781 Q1403.7656,52.4219 1404.8594,51.8125 Q1405.9531,51.1875 1407.1875,51.1875 Q1407.9219,51.1875 1408.5625,51.3594 Q1409.2188,51.5156 1409.7656,51.875 Z " fill="#000000"/><text fill="#000000" font-family="sans-serif" font-size="10" lengthAdjust="spacing" textLength="25.5664" x="1421" y="60.1406">Effect</text><line style="stroke:#181818;stroke-width:0.5;" x1="1393" x2="1448.5664" y1="72" y2="72"/><line style="stroke:#181818;stroke-width:0.5;" x1="1393" x2="1448.5664" y1="80" y2="80"/></g><!--class DizzyPunch--><g class="entity" data-entity="DizzyPunch" data-source-line="26" data-uid="ent0012" id="entity_DizzyPunch"><rect fill="#F1F1F1" height="103.8633" rx="5" ry="5" style="stroke:#181818;stroke-width:0.5;" width="268.4092" x="46" y="457.5"/><ellipse cx="149.5557" cy="473.5" fill="#ADD1B2" rx="11" ry="11" style="stroke:#181818;stroke-width:1;"/><path d="M152.3213,469.375 Q152.4775,469.1563 152.665,469.0469 Q152.8525,468.9375 153.0713,468.9375 Q153.4463,468.9375 153.6807,469.2031 Q153.915,469.4531 153.915,470.0625 L153.915,471.5156 Q153.915,472.125 153.6807,472.3906 Q153.4463,472.6563 153.0713,472.6563 Q152.7275,472.6563 152.5244,472.4531 Q152.3213,472.2656 152.2119,471.75 Q152.165,471.3906 151.9775,471.2031 Q151.6494,470.8281 151.04,470.6094 Q150.4307,470.3906 149.8057,470.3906 Q149.04,470.3906 148.3994,470.7188 Q147.7744,471.0469 147.2744,471.7969 Q146.79,472.5469 146.79,473.5781 L146.79,474.6719 Q146.79,475.9063 147.6807,476.7344 Q148.5713,477.5469 150.165,477.5469 Q151.1025,477.5469 151.7588,477.2969 Q152.1494,477.1406 152.5713,476.7031 Q152.8369,476.4375 152.9775,476.3594 Q153.1338,476.2813 153.3369,476.2813 Q153.665,476.2813 153.915,476.5469 Q154.1807,476.7969 154.1807,477.1406 Q154.1807,477.4844 153.8369,477.8906 Q153.3369,478.4688 152.54,478.7969 Q151.4619,479.25 150.165,479.25 Q148.6494,479.25 147.4463,478.625 Q146.4619,478.125 145.7744,477.0625 Q145.0869,475.9844 145.0869,474.7031 L145.0869,473.5469 Q145.0869,472.2188 145.6963,471.0781 Q146.3213,469.9219 147.415,469.3125 Q148.5088,468.6875 149.7432,468.6875 Q150.4775,468.6875 151.1182,468.8594 Q151.7744,469.0156 152.3213,469.375 Z " fill="#000000"/><text fill="#000000" font-family="sans-serif" font-size="10" lengthAdjust="spacing" textLength="52.7979" x="170.0557" y="477.6406">DizzyPunch</text><line style="stroke:#181818;stroke-width:0.5;" x1="47" x2="313.4092" y1="489.5" y2="489.5"/><line style="stroke:#181818;stroke-width:0.5;" x1="47" x2="313.4092" y1="497.5" y2="497.5"/><text fill="#000000" font-family="sans-serif" font-size="14" lengthAdjust="spacing" textLength="91.417" x="52" y="516.6074">+DizzyPunch()</text><text fill="#000000" font-family="sans-serif" font-size="14" lengthAdjust="spacing" textLength="256.4092" x="52" y="535.2285">~applyOppEffects(target: Pokemon): void</text><text fill="#000000" font-family="sans-serif" font-size="14" lengthAdjust="spacing" textLength="114.7686" x="52" y="553.8496">~describe(): String</text></g><!--class ShadowClaw--><g class="entity" data-entity="ShadowClaw" data-source-line="32" data-uid="ent0013" id="entity_ShadowClaw"><rect fill="#F1F1F1" height="85.2422" rx="5" ry="5" style="stroke:#181818;stroke-width:0.5;" width="126.7686" x="349.5" y="467"/><ellipse cx="380.8819" cy="483" fill="#ADD1B2" rx="11" ry="11" style="stroke:#181818;stroke-width:1;"/><path d="M383.6476,478.875 Q383.8038,478.6563 383.9913,478.5469 Q384.1788,478.4375 384.3976,478.4375 Q384.7726,478.4375 385.0069,478.7031 Q385.2413,478.9531 385.2413,479.5625 L385.2413,481.0156 Q385.2413,481.625 385.0069,481.8906 Q384.7726,482.1563 384.3976,482.1563 Q384.0538,482.1563 383.8507,481.9531 Q383.6476,481.7656 383.5382,481.25 Q383.4913,480.8906 383.3038,480.7031 Q382.9757,480.3281 382.3663,480.1094 Q381.7569,479.8906 381.1319,479.8906 Q380.3663,479.8906 379.7257,480.2188 Q379.1007,480.5469 378.6007,481.2969 Q378.1163,482.0469 378.1163,483.0781 L378.1163,484.1719 Q378.1163,485.4063 379.0069,486.2344 Q379.8976,487.0469 381.4913,487.0469 Q382.4288,487.0469 383.0851,486.7969 Q383.4757,486.6406 383.8976,486.2031 Q384.1632,485.9375 384.3038,485.8594 Q384.4601,485.7813 384.6632,485.7813 Q384.9913,485.7813 385.2413,486.0469 Q385.5069,486.2969 385.5069,486.6406 Q385.5069,486.9844 385.1632,487.3906 Q384.6632,487.9688 383.8663,488.2969 Q382.7882,488.75 381.4913,488.75 Q379.9757,488.75 378.7726,488.125 Q377.7882,487.625 377.1007,486.5625 Q376.4132,485.4844 376.4132,484.2031 L376.4132,483.0469 Q376.4132,481.7188 377.0226,480.5781 Q377.6476,479.4219 378.7413,478.8125 Q379.8351,478.1875 381.0694,478.1875 Q381.8038,478.1875 382.4444,478.3594 Q383.1007,478.5156 383.6476,478.875 Z " fill="#000000"/><text fill="#000000" font-family="sans-serif" font-size="10" lengthAdjust="spacing" textLength="58.3643" x="398.5224" y="487.1406">ShadowClaw</text><line style="stroke:#181818;stroke-width:0.5;" x1="350.5" x2="475.2686" y1="499" y2="499"/><line style="stroke:#181818;stroke-width:0.5;" x1="350.5" x2="475.2686" y1="507" y2="507"/><text fill="#000000" font-family="sans-serif" font-size="14" lengthAdjust="spacing" textLength="99.21" x="355.5" y="526.1074">+ShadowClaw()</text><text fill="#000000" font-family="sans-serif" font-size="14" lengthAdjust="spacing" textLength="114.7686" x="355.5" y="544.7285">~describe(): String</text></g><!--class WakeUpSlap--><g class="entity" data-entity="WakeUpSlap" data-source-line="37" data-uid="ent0014" id="entity_WakeUpSlap"><rect fill="#F1F1F1" height="122.4844" rx="5" ry="5" style="stroke:#181818;stroke-width:0.5;" width="386.7256" x="511.5" y="448.5"/><ellipse cx="671.4331" cy="464.5" fill="#ADD1B2" rx="11" ry="11" style="stroke:#181818;stroke-width:1;"/><path d="M674.1987,460.375 Q674.355,460.1563 674.5425,460.0469 Q674.73,459.9375 674.9487,459.9375 Q675.3237,459.9375 675.5581,460.2031 Q675.7925,460.4531 675.7925,461.0625 L675.7925,462.5156 Q675.7925,463.125 675.5581,463.3906 Q675.3237,463.6563 674.9487,463.6563 Q674.605,463.6563 674.4019,463.4531 Q674.1987,463.2656 674.0894,462.75 Q674.0425,462.3906 673.855,462.2031 Q673.5269,461.8281 672.9175,461.6094 Q672.3081,461.3906 671.6831,461.3906 Q670.9175,461.3906 670.2769,461.7188 Q669.6519,462.0469 669.1519,462.7969 Q668.6675,463.5469 668.6675,464.5781 L668.6675,465.6719 Q668.6675,466.9063 669.5581,467.7344 Q670.4487,468.5469 672.0425,468.5469 Q672.98,468.5469 673.6362,468.2969 Q674.0269,468.1406 674.4487,467.7031 Q674.7144,467.4375 674.855,467.3594 Q675.0112,467.2813 675.2144,467.2813 Q675.5425,467.2813 675.7925,467.5469 Q676.0581,467.7969 676.0581,468.1406 Q676.0581,468.4844 675.7144,468.8906 Q675.2144,469.4688 674.4175,469.7969 Q673.3394,470.25 672.0425,470.25 Q670.5269,470.25 669.3237,469.625 Q668.3394,469.125 667.6519,468.0625 Q666.9644,466.9844 666.9644,465.7031 L666.9644,464.5469 Q666.9644,463.2188 667.5737,462.0781 Q668.1987,460.9219 669.2925,460.3125 Q670.3862,459.6875 671.6206,459.6875 Q672.355,459.6875 672.9956,459.8594 Q673.6519,460.0156 674.1987,460.375 Z " fill="#000000"/><text fill="#000000" font-family="sans-serif" font-size="10" lengthAdjust="spacing" textLength="58.3594" x="691.9331" y="468.6406">WakeUpSlap</text><line style="stroke:#181818;stroke-width:0.5;" x1="512.5" x2="897.2256" y1="480.5" y2="480.5"/><line style="stroke:#181818;stroke-width:0.5;" x1="512.5" x2="897.2256" y1="488.5" y2="488.5"/><text fill="#000000" font-family="sans-serif" font-size="14" lengthAdjust="spacing" textLength="99.2031" x="517.5" y="507.6074">+WakeUpSlap()</text><text fill="#000000" font-family="sans-serif" font-size="14" lengthAdjust="spacing" textLength="374.7256" x="517.5" y="526.2285">~applyOppDamage(target: Pokemon, damage: double): void</text><text fill="#000000" font-family="sans-serif" font-size="14" lengthAdjust="spacing" textLength="256.4092" x="517.5" y="544.8496">~applyOppEffects(target: Pokemon): void</text><text fill="#000000" font-family="sans-serif" font-size="14" lengthAdjust="spacing" textLength="114.7686" x="517.5" y="563.4707">~describe(): String</text></g><!--class DreamEater--><g class="entity" data-entity="DreamEater" data-source-line="47" data-uid="ent0016" id="entity_DreamEater"><rect fill="#F1F1F1" height="103.8633" rx="5" ry="5" style="stroke:#181818;stroke-width:0.5;" width="386.7256" x="2818.5" y="457.5"/><ellipse cx="2980.6597" cy="473.5" fill="#ADD1B2" rx="11" ry="11" style="stroke:#181818;stroke-width:1;"/><path d="M2983.4253,469.375 Q2983.5815,469.1563 2983.769,469.0469 Q2983.9565,468.9375 2984.1753,468.9375 Q2984.5503,468.9375 2984.7847,469.2031 Q2985.019,469.4531 2985.019,470.0625 L2985.019,471.5156 Q2985.019,472.125 2984.7847,472.3906 Q2984.5503,472.6563 2984.1753,472.6563 Q2983.8315,472.6563 2983.6284,472.4531 Q2983.4253,472.2656 2983.3159,471.75 Q2983.269,471.3906 2983.0815,471.2031 Q2982.7534,470.8281 2982.144,470.6094 Q2981.5347,470.3906 2980.9097,470.3906 Q2980.144,470.3906 2979.5034,470.7188 Q2978.8784,471.0469 2978.3784,471.7969 Q2977.894,472.5469 2977.894,473.5781 L2977.894,474.6719 Q2977.894,475.9063 2978.7847,476.7344 Q2979.6753,477.5469 2981.269,477.5469 Q2982.2065,477.5469 2982.8628,477.2969 Q2983.2534,477.1406 2983.6753,476.7031 Q2983.9409,476.4375 2984.0815,476.3594 Q2984.2378,476.2813 2984.4409,476.2813 Q2984.769,476.2813 2985.019,476.5469 Q2985.2847,476.7969 2985.2847,477.1406 Q2985.2847,477.4844 2984.9409,477.8906 Q2984.4409,478.4688 2983.644,478.7969 Q2982.5659,479.25 2981.269,479.25 Q2979.7534,479.25 2978.5503,478.625 Q2977.5659,478.125 2976.8784,477.0625 Q2976.1909,475.9844 2976.1909,474.7031 L2976.1909,473.5469 Q2976.1909,472.2188 2976.8003,471.0781 Q2977.4253,469.9219 2978.519,469.3125 Q2979.6128,468.6875 2980.8472,468.6875 Q2981.5815,468.6875 2982.2222,468.8594 Q2982.8784,469.0156 2983.4253,469.375 Z " fill="#000000"/><text fill="#000000" font-family="sans-serif" font-size="10" lengthAdjust="spacing" textLength="53.9063" x="3001.1597" y="477.6406">DreamEater</text><line style="stroke:#181818;stroke-width:0.5;" x1="2819.5" x2="3204.2256" y1="489.5" y2="489.5"/><line style="stroke:#181818;stroke-width:0.5;" x1="2819.5" x2="3204.2256" y1="497.5" y2="497.5"/><text fill="#000000" font-family="sans-serif" font-size="14" lengthAdjust="spacing" textLength="92.9688" x="2824.5" y="516.6074">+DreamEater()</text><text fill="#000000" font-family="sans-serif" font-size="14" lengthAdjust="spacing" textLength="374.7256" x="2824.5" y="535.2285">~applyOppDamage(target: Pokemon, damage: double): void</text><text fill="#000000" font-family="sans-serif" font-size="14" lengthAdjust="spacing" textLength="114.7686" x="2824.5" y="553.8496">~describe(): String</text></g><!--class Flamethrower--><g class="entity" data-entity="Flamethrower" data-source-line="53" data-uid="ent0017" id="entity_Flamethrower"><rect fill="#F1F1F1" height="103.8633" rx="5" ry="5" style="stroke:#181818;stroke-width:0.5;" width="268.4092" x="2515" y="457.5"/><ellipse cx="2614.3906" cy="473.5" fill="#ADD1B2" rx="11" ry="11" style="stroke:#181818;stroke-width:1;"/><path d="M2617.1563,469.375 Q2617.3125,469.1563 2617.5,469.0469 Q2617.6875,468.9375 2617.9063,468.9375 Q2618.2813,468.9375 2618.5156,469.2031 Q2618.75,469.4531 2618.75,470.0625 L2618.75,471.5156 Q2618.75,472.125 2618.5156,472.3906 Q2618.2813,472.6563 2617.9063,472.6563 Q2617.5625,472.6563 2617.3594,472.4531 Q2617.1563,472.2656 2617.0469,471.75 Q2617,471.3906 2616.8125,471.2031 Q2616.4844,470.8281 2615.875,470.6094 Q2615.2656,470.3906 2614.6406,470.3906 Q2613.875,470.3906 2613.2344,470.7188 Q2612.6094,471.0469 2612.1094,471.7969 Q2611.625,472.5469 2611.625,473.5781 L2611.625,474.6719 Q2611.625,475.9063 2612.5156,476.7344 Q2613.4063,477.5469 2615,477.5469 Q2615.9375,477.5469 2616.5938,477.2969 Q2616.9844,477.1406 2617.4063,476.7031 Q2617.6719,476.4375 2617.8125,476.3594 Q2617.9688,476.2813 2618.1719,476.2813 Q2618.5,476.2813 2618.75,476.5469 Q2619.0156,476.7969 2619.0156,477.1406 Q2619.0156,477.4844 2618.6719,477.8906 Q2618.1719,478.4688 2617.375,478.7969 Q2616.2969,479.25 2615,479.25 Q2613.4844,479.25 2612.2813,478.625 Q2611.2969,478.125 2610.6094,477.0625 Q2609.9219,475.9844 2609.9219,474.7031 L2609.9219,473.5469 Q2609.9219,472.2188 2610.5313,471.0781 Q2611.1563,469.9219 2612.25,469.3125 Q2613.3438,468.6875 2614.5781,468.6875 Q2615.3125,468.6875 2615.9531,468.8594 Q2616.6094,469.0156 2617.1563,469.375 Z " fill="#000000"/><text fill="#000000" font-family="sans-serif" font-size="10" lengthAdjust="spacing" textLength="61.1279" x="2634.8906" y="477.6406">Flamethrower</text><line style="stroke:#181818;stroke-width:0.5;" x1="2516" x2="2782.4092" y1="489.5" y2="489.5"/><line style="stroke:#181818;stroke-width:0.5;" x1="2516" x2="2782.4092" y1="497.5" y2="497.5"/><text fill="#000000" font-family="sans-serif" font-size="14" lengthAdjust="spacing" textLength="103.0791" x="2521" y="516.6074">+Flamethrower()</text><text fill="#000000" font-family="sans-serif" font-size="14" lengthAdjust="spacing" textLength="256.4092" x="2521" y="535.2285">~applyOppEffects(target: Pokemon): void</text><text fill="#000000" font-family="sans-serif" font-size="14" lengthAdjust="spacing" textLength="114.7686" x="2521" y="553.8496">~describe(): String</text></g><!--class MirrorShot--><g class="entity" data-entity="MirrorShot" data-source-line="59" data-uid="ent0018" id="entity_MirrorShot"><rect fill="#F1F1F1" height="103.8633" rx="5" ry="5" style="stroke:#181818;stroke-width:0.5;" width="268.4092" x="3241" y="457.5"/><ellipse cx="3347.6172" cy="473.5" fill="#ADD1B2" rx="11" ry="11" style="stroke:#181818;stroke-width:1;"/><path d="M3350.3828,469.375 Q3350.5391,469.1563 3350.7266,469.0469 Q3350.9141,468.9375 3351.1328,468.9375 Q3351.5078,468.9375 3351.7422,469.2031 Q3351.9766,469.4531 3351.9766,470.0625 L3351.9766,471.5156 Q3351.9766,472.125 3351.7422,472.3906 Q3351.5078,472.6563 3351.1328,472.6563 Q3350.7891,472.6563 3350.5859,472.4531 Q3350.3828,472.2656 3350.2734,471.75 Q3350.2266,471.3906 3350.0391,471.2031 Q3349.7109,470.8281 3349.1016,470.6094 Q3348.4922,470.3906 3347.8672,470.3906 Q3347.1016,470.3906 3346.4609,470.7188 Q3345.8359,471.0469 3345.3359,471.7969 Q3344.8516,472.5469 3344.8516,473.5781 L3344.8516,474.6719 Q3344.8516,475.9063 3345.7422,476.7344 Q3346.6328,477.5469 3348.2266,477.5469 Q3349.1641,477.5469 3349.8203,477.2969 Q3350.2109,477.1406 3350.6328,476.7031 Q3350.8984,476.4375 3351.0391,476.3594 Q3351.1953,476.2813 3351.3984,476.2813 Q3351.7266,476.2813 3351.9766,476.5469 Q3352.2422,476.7969 3352.2422,477.1406 Q3352.2422,477.4844 3351.8984,477.8906 Q3351.3984,478.4688 3350.6016,478.7969 Q3349.5234,479.25 3348.2266,479.25 Q3346.7109,479.25 3345.5078,478.625 Q3344.5234,478.125 3343.8359,477.0625 Q3343.1484,475.9844 3343.1484,474.7031 L3343.1484,473.5469 Q3343.1484,472.2188 3343.7578,471.0781 Q3344.3828,469.9219 3345.4766,469.3125 Q3346.5703,468.6875 3347.8047,468.6875 Q3348.5391,468.6875 3349.1797,468.8594 Q3349.8359,469.0156 3350.3828,469.375 Z " fill="#000000"/><text fill="#000000" font-family="sans-serif" font-size="10" lengthAdjust="spacing" textLength="46.6748" x="3368.1172" y="477.6406">MirrorShot</text><line style="stroke:#181818;stroke-width:0.5;" x1="3242" x2="3508.4092" y1="489.5" y2="489.5"/><line style="stroke:#181818;stroke-width:0.5;" x1="3242" x2="3508.4092" y1="497.5" y2="497.5"/><text fill="#000000" font-family="sans-serif" font-size="14" lengthAdjust="spacing" textLength="82.8447" x="3247" y="516.6074">+MirrorShot()</text><text fill="#000000" font-family="sans-serif" font-size="14" lengthAdjust="spacing" textLength="256.4092" x="3247" y="535.2285">~applyOppEffects(target: Pokemon): void</text><text fill="#000000" font-family="sans-serif" font-size="14" lengthAdjust="spacing" textLength="114.7686" x="3247" y="553.8496">~describe(): String</text></g><!--class DoubleTeam--><g class="entity" data-entity="DoubleTeam" data-source-line="68" data-uid="ent0020" id="entity_DoubleTeam"><rect fill="#F1F1F1" height="103.8633" rx="5" ry="5" style="stroke:#181818;stroke-width:0.5;" width="280.0713" x="2179" y="457.5"/><ellipse cx="2286.1602" cy="473.5" fill="#ADD1B2" rx="11" ry="11" style="stroke:#181818;stroke-width:1;"/><path d="M2288.9258,469.375 Q2289.082,469.1563 2289.2695,469.0469 Q2289.457,468.9375 2289.6758,468.9375 Q2290.0508,468.9375 2290.2852,469.2031 Q2290.5195,469.4531 2290.5195,470.0625 L2290.5195,471.5156 Q2290.5195,472.125 2290.2852,472.3906 Q2290.0508,472.6563 2289.6758,472.6563 Q2289.332,472.6563 2289.1289,472.4531 Q2288.9258,472.2656 2288.8164,471.75 Q2288.7695,471.3906 2288.582,471.2031 Q2288.2539,470.8281 2287.6445,470.6094 Q2287.0352,470.3906 2286.4102,470.3906 Q2285.6445,470.3906 2285.0039,470.7188 Q2284.3789,471.0469 2283.8789,471.7969 Q2283.3945,472.5469 2283.3945,473.5781 L2283.3945,474.6719 Q2283.3945,475.9063 2284.2852,476.7344 Q2285.1758,477.5469 2286.7695,477.5469 Q2287.707,477.5469 2288.3633,477.2969 Q2288.7539,477.1406 2289.1758,476.7031 Q2289.4414,476.4375 2289.582,476.3594 Q2289.7383,476.2813 2289.9414,476.2813 Q2290.2695,476.2813 2290.5195,476.5469 Q2290.7852,476.7969 2290.7852,477.1406 Q2290.7852,477.4844 2290.4414,477.8906 Q2289.9414,478.4688 2289.1445,478.7969 Q2288.0664,479.25 2286.7695,479.25 Q2285.2539,479.25 2284.0508,478.625 Q2283.0664,478.125 2282.3789,477.0625 Q2281.6914,475.9844 2281.6914,474.7031 L2281.6914,473.5469 Q2281.6914,472.2188 2282.3008,471.0781 Q2282.9258,469.9219 2284.0195,469.3125 Q2285.1133,468.6875 2286.3477,468.6875 Q2287.082,468.6875 2287.7227,468.8594 Q2288.3789,469.0156 2288.9258,469.375 Z " fill="#000000"/><text fill="#000000" font-family="sans-serif" font-size="10" lengthAdjust="spacing" textLength="57.251" x="2306.6602" y="477.6406">DoubleTeam</text><line style="stroke:#181818;stroke-width:0.5;" x1="2180" x2="2458.0713" y1="489.5" y2="489.5"/><line style="stroke:#181818;stroke-width:0.5;" x1="2180" x2="2458.0713" y1="497.5" y2="497.5"/><text fill="#000000" font-family="sans-serif" font-size="14" lengthAdjust="spacing" textLength="97.6514" x="2185" y="516.6074">+DoubleTeam()</text><text fill="#000000" font-family="sans-serif" font-size="14" lengthAdjust="spacing" textLength="268.0713" x="2185" y="535.2285">~applySelfEffects(attacker: Pokemon): void</text><text fill="#000000" font-family="sans-serif" font-size="14" lengthAdjust="spacing" textLength="114.7686" x="2185" y="553.8496">~describe(): String</text></g><!--class IronDefense--><g class="entity" data-entity="IronDefense" data-source-line="74" data-uid="ent0021" id="entity_IronDefense"><rect fill="#F1F1F1" height="103.8633" rx="5" ry="5" style="stroke:#181818;stroke-width:0.5;" width="280.0713" x="1864" y="457.5"/><ellipse cx="1972.5469" cy="473.5" fill="#ADD1B2" rx="11" ry="11" style="stroke:#181818;stroke-width:1;"/><path d="M1975.3125,469.375 Q1975.4688,469.1563 1975.6563,469.0469 Q1975.8438,468.9375 1976.0625,468.9375 Q1976.4375,468.9375 1976.6719,469.2031 Q1976.9063,469.4531 1976.9063,470.0625 L1976.9063,471.5156 Q1976.9063,472.125 1976.6719,472.3906 Q1976.4375,472.6563 1976.0625,472.6563 Q1975.7188,472.6563 1975.5156,472.4531 Q1975.3125,472.2656 1975.2031,471.75 Q1975.1563,471.3906 1974.9688,471.2031 Q1974.6406,470.8281 1974.0313,470.6094 Q1973.4219,470.3906 1972.7969,470.3906 Q1972.0313,470.3906 1971.3906,470.7188 Q1970.7656,471.0469 1970.2656,471.7969 Q1969.7813,472.5469 1969.7813,473.5781 L1969.7813,474.6719 Q1969.7813,475.9063 1970.6719,476.7344 Q1971.5625,477.5469 1973.1563,477.5469 Q1974.0938,477.5469 1974.75,477.2969 Q1975.1406,477.1406 1975.5625,476.7031 Q1975.8281,476.4375 1975.9688,476.3594 Q1976.125,476.2813 1976.3281,476.2813 Q1976.6563,476.2813 1976.9063,476.5469 Q1977.1719,476.7969 1977.1719,477.1406 Q1977.1719,477.4844 1976.8281,477.8906 Q1976.3281,478.4688 1975.5313,478.7969 Q1974.4531,479.25 1973.1563,479.25 Q1971.6406,479.25 1970.4375,478.625 Q1969.4531,478.125 1968.7656,477.0625 Q1968.0781,475.9844 1968.0781,474.7031 L1968.0781,473.5469 Q1968.0781,472.2188 1968.6875,471.0781 Q1969.3125,469.9219 1970.4063,469.3125 Q1971.5,468.6875 1972.7344,468.6875 Q1973.4688,468.6875 1974.1094,468.8594 Q1974.7656,469.0156 1975.3125,469.375 Z " fill="#000000"/><text fill="#000000" font-family="sans-serif" font-size="10" lengthAdjust="spacing" textLength="54.4775" x="1993.0469" y="477.6406">IronDefense</text><line style="stroke:#181818;stroke-width:0.5;" x1="1865" x2="2143.0713" y1="489.5" y2="489.5"/><line style="stroke:#181818;stroke-width:0.5;" x1="1865" x2="2143.0713" y1="497.5" y2="497.5"/><text fill="#000000" font-family="sans-serif" font-size="14" lengthAdjust="spacing" textLength="93.7686" x="1870" y="516.6074">+IronDefense()</text><text fill="#000000" font-family="sans-serif" font-size="14" lengthAdjust="spacing" textLength="268.0713" x="1870" y="535.2285">~applySelfEffects(attacker: Pokemon): void</text><text fill="#000000" font-family="sans-serif" font-size="14" lengthAdjust="spacing" textLength="114.7686" x="1870" y="553.8496">~describe(): String</text></g><!--class Sing--><g class="entity" data-entity="Sing" data-source-line="80" data-uid="ent0022" id="entity_Sing"><rect fill="#F1F1F1" height="103.8633" rx="5" ry="5" style="stroke:#181818;stroke-width:0.5;" width="268.4092" x="955" y="457.5"/><ellipse cx="1074.9473" cy="473.5" fill="#ADD1B2" rx="11" ry="11" style="stroke:#181818;stroke-width:1;"/><path d="M1077.7129,469.375 Q1077.8691,469.1563 1078.0566,469.0469 Q1078.2441,468.9375 1078.4629,468.9375 Q1078.8379,468.9375 1079.0723,469.2031 Q1079.3066,469.4531 1079.3066,470.0625 L1079.3066,471.5156 Q1079.3066,472.125 1079.0723,472.3906 Q1078.8379,472.6563 1078.4629,472.6563 Q1078.1191,472.6563 1077.916,472.4531 Q1077.7129,472.2656 1077.6035,471.75 Q1077.5566,471.3906 1077.3691,471.2031 Q1077.041,470.8281 1076.4316,470.6094 Q1075.8223,470.3906 1075.1973,470.3906 Q1074.4316,470.3906 1073.791,470.7188 Q1073.166,471.0469 1072.666,471.7969 Q1072.1816,472.5469 1072.1816,473.5781 L1072.1816,474.6719 Q1072.1816,475.9063 1073.0723,476.7344 Q1073.9629,477.5469 1075.5566,477.5469 Q1076.4941,477.5469 1077.1504,477.2969 Q1077.541,477.1406 1077.9629,476.7031 Q1078.2285,476.4375 1078.3691,476.3594 Q1078.5254,476.2813 1078.7285,476.2813 Q1079.0566,476.2813 1079.3066,476.5469 Q1079.5723,476.7969 1079.5723,477.1406 Q1079.5723,477.4844 1079.2285,477.8906 Q1078.7285,478.4688 1077.9316,478.7969 Q1076.8535,479.25 1075.5566,479.25 Q1074.041,479.25 1072.8379,478.625 Q1071.8535,478.125 1071.166,477.0625 Q1070.4785,475.9844 1070.4785,474.7031 L1070.4785,473.5469 Q1070.4785,472.2188 1071.0879,471.0781 Q1071.7129,469.9219 1072.8066,469.3125 Q1073.9004,468.6875 1075.1348,468.6875 Q1075.8691,468.6875 1076.5098,468.8594 Q1077.166,469.0156 1077.7129,469.375 Z " fill="#000000"/><text fill="#000000" font-family="sans-serif" font-size="10" lengthAdjust="spacing" textLength="20.0146" x="1095.4473" y="477.6406">Sing</text><line style="stroke:#181818;stroke-width:0.5;" x1="956" x2="1222.4092" y1="489.5" y2="489.5"/><line style="stroke:#181818;stroke-width:0.5;" x1="956" x2="1222.4092" y1="497.5" y2="497.5"/><text fill="#000000" font-family="sans-serif" font-size="14" lengthAdjust="spacing" textLength="45.5205" x="961" y="516.6074">+Sing()</text><text fill="#000000" font-family="sans-serif" font-size="14" lengthAdjust="spacing" textLength="256.4092" x="961" y="535.2285">~applyOppEffects(target: Pokemon): void</text><text fill="#000000" font-family="sans-serif" font-size="14" lengthAdjust="spacing" textLength="114.7686" x="961" y="553.8496">~describe(): String</text></g><!--class Swagger--><g class="entity" data-entity="Swagger" data-source-line="86" data-uid="ent0023" id="entity_Swagger"><rect fill="#F1F1F1" height="103.8633" rx="5" ry="5" style="stroke:#181818;stroke-width:0.5;" width="268.4092" x="1561" y="457.5"/><ellipse cx="1671.2207" cy="473.5" fill="#ADD1B2" rx="11" ry="11" style="stroke:#181818;stroke-width:1;"/><path d="M1673.9863,469.375 Q1674.1426,469.1563 1674.3301,469.0469 Q1674.5176,468.9375 1674.7363,468.9375 Q1675.1113,468.9375 1675.3457,469.2031 Q1675.5801,469.4531 1675.5801,470.0625 L1675.5801,471.5156 Q1675.5801,472.125 1675.3457,472.3906 Q1675.1113,472.6563 1674.7363,472.6563 Q1674.3926,472.6563 1674.1895,472.4531 Q1673.9863,472.2656 1673.877,471.75 Q1673.8301,471.3906 1673.6426,471.2031 Q1673.3145,470.8281 1672.7051,470.6094 Q1672.0957,470.3906 1671.4707,470.3906 Q1670.7051,470.3906 1670.0645,470.7188 Q1669.4395,471.0469 1668.9395,471.7969 Q1668.4551,472.5469 1668.4551,473.5781 L1668.4551,474.6719 Q1668.4551,475.9063 1669.3457,476.7344 Q1670.2363,477.5469 1671.8301,477.5469 Q1672.7676,477.5469 1673.4238,477.2969 Q1673.8145,477.1406 1674.2363,476.7031 Q1674.502,476.4375 1674.6426,476.3594 Q1674.7988,476.2813 1675.002,476.2813 Q1675.3301,476.2813 1675.5801,476.5469 Q1675.8457,476.7969 1675.8457,477.1406 Q1675.8457,477.4844 1675.502,477.8906 Q1675.002,478.4688 1674.2051,478.7969 Q1673.127,479.25 1671.8301,479.25 Q1670.3145,479.25 1669.1113,478.625 Q1668.127,478.125 1667.4395,477.0625 Q1666.752,475.9844 1666.752,474.7031 L1666.752,473.5469 Q1666.752,472.2188 1667.3613,471.0781 Q1667.9863,469.9219 1669.0801,469.3125 Q1670.1738,468.6875 1671.4082,468.6875 Q1672.1426,468.6875 1672.7832,468.8594 Q1673.4395,469.0156 1673.9863,469.375 Z " fill="#000000"/><text fill="#000000" font-family="sans-serif" font-size="10" lengthAdjust="spacing" textLength="39.4678" x="1691.7207" y="477.6406">Swagger</text><line style="stroke:#181818;stroke-width:0.5;" x1="1562" x2="1828.4092" y1="489.5" y2="489.5"/><line style="stroke:#181818;stroke-width:0.5;" x1="1562" x2="1828.4092" y1="497.5" y2="497.5"/><text fill="#000000" font-family="sans-serif" font-size="14" lengthAdjust="spacing" textLength="72.7549" x="1567" y="516.6074">+Swagger()</text><text fill="#000000" font-family="sans-serif" font-size="14" lengthAdjust="spacing" textLength="256.4092" x="1567" y="535.2285">~applyOppEffects(target: Pokemon): void</text><text fill="#000000" font-family="sans-serif" font-size="14" lengthAdjust="spacing" textLength="114.7686" x="1567" y="553.8496">~describe(): String</text></g><!--class TailWhip--><g class="entity" data-entity="TailWhip" data-source-line="92" data-uid="ent0024" id="entity_TailWhip"><rect fill="#F1F1F1" height="103.8633" rx="5" ry="5" style="stroke:#181818;stroke-width:0.5;" width="268.4092" x="1258" y="457.5"/><ellipse cx="1368.5063" cy="473.5" fill="#ADD1B2" rx="11" ry="11" style="stroke:#181818;stroke-width:1;"/><path d="M1371.272,469.375 Q1371.4282,469.1563 1371.6157,469.0469 Q1371.8032,468.9375 1372.022,468.9375 Q1372.397,468.9375 1372.6313,469.2031 Q1372.8657,469.4531 1372.8657,470.0625 L1372.8657,471.5156 Q1372.8657,472.125 1372.6313,472.3906 Q1372.397,472.6563 1372.022,472.6563 Q1371.6782,472.6563 1371.4751,472.4531 Q1371.272,472.2656 1371.1626,471.75 Q1371.1157,471.3906 1370.9282,471.2031 Q1370.6001,470.8281 1369.9907,470.6094 Q1369.3813,470.3906 1368.7563,470.3906 Q1367.9907,470.3906 1367.3501,470.7188 Q1366.7251,471.0469 1366.2251,471.7969 Q1365.7407,472.5469 1365.7407,473.5781 L1365.7407,474.6719 Q1365.7407,475.9063 1366.6313,476.7344 Q1367.522,477.5469 1369.1157,477.5469 Q1370.0532,477.5469 1370.7095,477.2969 Q1371.1001,477.1406 1371.522,476.7031 Q1371.7876,476.4375 1371.9282,476.3594 Q1372.0845,476.2813 1372.2876,476.2813 Q1372.6157,476.2813 1372.8657,476.5469 Q1373.1313,476.7969 1373.1313,477.1406 Q1373.1313,477.4844 1372.7876,477.8906 Q1372.2876,478.4688 1371.4907,478.7969 Q1370.4126,479.25 1369.1157,479.25 Q1367.6001,479.25 1366.397,478.625 Q1365.4126,478.125 1364.7251,477.0625 Q1364.0376,475.9844 1364.0376,474.7031 L1364.0376,473.5469 Q1364.0376,472.2188 1364.647,471.0781 Q1365.272,469.9219 1366.3657,469.3125 Q1367.4595,468.6875 1368.6938,468.6875 Q1369.4282,468.6875 1370.0688,468.8594 Q1370.7251,469.0156 1371.272,469.375 Z " fill="#000000"/><text fill="#000000" font-family="sans-serif" font-size="10" lengthAdjust="spacing" textLength="38.8965" x="1389.0063" y="477.6406">TailWhip</text><line style="stroke:#181818;stroke-width:0.5;" x1="1259" x2="1525.4092" y1="489.5" y2="489.5"/><line style="stroke:#181818;stroke-width:0.5;" x1="1259" x2="1525.4092" y1="497.5" y2="497.5"/><text fill="#000000" font-family="sans-serif" font-size="14" lengthAdjust="spacing" textLength="71.9551" x="1264" y="516.6074">+TailWhip()</text><text fill="#000000" font-family="sans-serif" font-size="14" lengthAdjust="spacing" textLength="256.4092" x="1264" y="535.2285">~applyOppEffects(target: Pokemon): void</text><text fill="#000000" font-family="sans-serif" font-size="14" lengthAdjust="spacing" textLength="114.7686" x="1264" y="553.8496">~describe(): String</text></g><!--class Kangaskhan--><g class="entity" data-entity="Kangaskhan" data-source-line="102" data-uid="ent0026" id="entity_Kangaskhan"><rect fill="#F1F1F1" height="66.6211" rx="5" ry="5" style="stroke:#181818;stroke-width:0.5;" width="245.8506" x="3589" y="148"/><ellipse cx="3679.875" cy="164" fill="#ADD1B2" rx="11" ry="11" style="stroke:#181818;stroke-width:1;"/><path d="M3682.6406,159.875 Q3682.7969,159.6563 3682.9844,159.5469 Q3683.1719,159.4375 3683.3906,159.4375 Q3683.7656,159.4375 3684,159.7031 Q3684.2344,159.9531 3684.2344,160.5625 L3684.2344,162.0156 Q3684.2344,162.625 3684,162.8906 Q3683.7656,163.1563 3683.3906,163.1563 Q3683.0469,163.1563 3682.8438,162.9531 Q3682.6406,162.7656 3682.5313,162.25 Q3682.4844,161.8906 3682.2969,161.7031 Q3681.9688,161.3281 3681.3594,161.1094 Q3680.75,160.8906 3680.125,160.8906 Q3679.3594,160.8906 3678.7188,161.2188 Q3678.0938,161.5469 3677.5938,162.2969 Q3677.1094,163.0469 3677.1094,164.0781 L3677.1094,165.1719 Q3677.1094,166.4063 3678,167.2344 Q3678.8906,168.0469 3680.4844,168.0469 Q3681.4219,168.0469 3682.0781,167.7969 Q3682.4688,167.6406 3682.8906,167.2031 Q3683.1563,166.9375 3683.2969,166.8594 Q3683.4531,166.7813 3683.6563,166.7813 Q3683.9844,166.7813 3684.2344,167.0469 Q3684.5,167.2969 3684.5,167.6406 Q3684.5,167.9844 3684.1563,168.3906 Q3683.6563,168.9688 3682.8594,169.2969 Q3681.7813,169.75 3680.4844,169.75 Q3678.9688,169.75 3677.7656,169.125 Q3676.7813,168.625 3676.0938,167.5625 Q3675.4063,166.4844 3675.4063,165.2031 L3675.4063,164.0469 Q3675.4063,162.7188 3676.0156,161.5781 Q3676.6406,160.4219 3677.7344,159.8125 Q3678.8281,159.1875 3680.0625,159.1875 Q3680.7969,159.1875 3681.4375,159.3594 Q3682.0938,159.5156 3682.6406,159.875 Z " fill="#000000"/><text fill="#000000" font-family="sans-serif" font-size="10" lengthAdjust="spacing" textLength="55.6006" x="3700.375" y="168.1406">Kangaskhan</text><line style="stroke:#181818;stroke-width:0.5;" x1="3590" x2="3833.8506" y1="180" y2="180"/><line style="stroke:#181818;stroke-width:0.5;" x1="3590" x2="3833.8506" y1="188" y2="188"/><text fill="#000000" font-family="sans-serif" font-size="14" lengthAdjust="spacing" textLength="233.8506" x="3595" y="207.1074">+Kangaskhan(name: String, level: int)</text></g><!--class Igglybuff--><g class="entity" data-entity="Igglybuff" data-source-line="106" data-uid="ent0027" id="entity_Igglybuff"><rect fill="#F1F1F1" height="66.6211" rx="5" ry="5" style="stroke:#181818;stroke-width:0.5;" width="220.9336" x="4116.5" y="148"/><ellipse cx="4203.8154" cy="164" fill="#ADD1B2" rx="11" ry="11" style="stroke:#181818;stroke-width:1;"/><path d="M4206.5811,159.875 Q4206.7373,159.6563 4206.9248,159.5469 Q4207.1123,159.4375 4207.3311,159.4375 Q4207.7061,159.4375 4207.9404,159.7031 Q4208.1748,159.9531 4208.1748,160.5625 L4208.1748,162.0156 Q4208.1748,162.625 4207.9404,162.8906 Q4207.7061,163.1563 4207.3311,163.1563 Q4206.9873,163.1563 4206.7842,162.9531 Q4206.5811,162.7656 4206.4717,162.25 Q4206.4248,161.8906 4206.2373,161.7031 Q4205.9092,161.3281 4205.2998,161.1094 Q4204.6904,160.8906 4204.0654,160.8906 Q4203.2998,160.8906 4202.6592,161.2188 Q4202.0342,161.5469 4201.5342,162.2969 Q4201.0498,163.0469 4201.0498,164.0781 L4201.0498,165.1719 Q4201.0498,166.4063 4201.9404,167.2344 Q4202.8311,168.0469 4204.4248,168.0469 Q4205.3623,168.0469 4206.0186,167.7969 Q4206.4092,167.6406 4206.8311,167.2031 Q4207.0967,166.9375 4207.2373,166.8594 Q4207.3936,166.7813 4207.5967,166.7813 Q4207.9248,166.7813 4208.1748,167.0469 Q4208.4404,167.2969 4208.4404,167.6406 Q4208.4404,167.9844 4208.0967,168.3906 Q4207.5967,168.9688 4206.7998,169.2969 Q4205.7217,169.75 4204.4248,169.75 Q4202.9092,169.75 4201.7061,169.125 Q4200.7217,168.625 4200.0342,167.5625 Q4199.3467,166.4844 4199.3467,165.2031 L4199.3467,164.0469 Q4199.3467,162.7188 4199.9561,161.5781 Q4200.5811,160.4219 4201.6748,159.8125 Q4202.7686,159.1875 4204.0029,159.1875 Q4204.7373,159.1875 4205.3779,159.3594 Q4206.0342,159.5156 4206.5811,159.875 Z " fill="#000000"/><text fill="#000000" font-family="sans-serif" font-size="10" lengthAdjust="spacing" textLength="37.8027" x="4224.3154" y="168.1406">Igglybuff</text><line style="stroke:#181818;stroke-width:0.5;" x1="4117.5" x2="4336.4336" y1="180" y2="180"/><line style="stroke:#181818;stroke-width:0.5;" x1="4117.5" x2="4336.4336" y1="188" y2="188"/><text fill="#000000" font-family="sans-serif" font-size="14" lengthAdjust="spacing" textLength="208.9336" x="4122.5" y="207.1074">+Igglybuff(name: String, level: int)</text></g><!--class Jigglypuff--><g class="entity" data-entity="Jigglypuff" data-source-line="110" data-uid="ent0028" id="entity_Jigglypuff"><rect fill="#F1F1F1" height="66.6211" rx="5" ry="5" style="stroke:#181818;stroke-width:0.5;" width="227.1543" x="3856.5" y="275"/><ellipse cx="3944.7041" cy="291" fill="#ADD1B2" rx="11" ry="11" style="stroke:#181818;stroke-width:1;"/><path d="M3947.4697,286.875 Q3947.626,286.6563 3947.8135,286.5469 Q3948.001,286.4375 3948.2197,286.4375 Q3948.5947,286.4375 3948.8291,286.7031 Q3949.0635,286.9531 3949.0635,287.5625 L3949.0635,289.0156 Q3949.0635,289.625 3948.8291,289.8906 Q3948.5947,290.1563 3948.2197,290.1563 Q3947.876,290.1563 3947.6729,289.9531 Q3947.4697,289.7656 3947.3604,289.25 Q3947.3135,288.8906 3947.126,288.7031 Q3946.7979,288.3281 3946.1885,288.1094 Q3945.5791,287.8906 3944.9541,287.8906 Q3944.1885,287.8906 3943.5479,288.2188 Q3942.9229,288.5469 3942.4229,289.2969 Q3941.9385,290.0469 3941.9385,291.0781 L3941.9385,292.1719 Q3941.9385,293.4063 3942.8291,294.2344 Q3943.7197,295.0469 3945.3135,295.0469 Q3946.251,295.0469 3946.9072,294.7969 Q3947.2979,294.6406 3947.7197,294.2031 Q3947.9854,293.9375 3948.126,293.8594 Q3948.2822,293.7813 3948.4854,293.7813 Q3948.8135,293.7813 3949.0635,294.0469 Q3949.3291,294.2969 3949.3291,294.6406 Q3949.3291,294.9844 3948.9854,295.3906 Q3948.4854,295.9688 3947.6885,296.2969 Q3946.6104,296.75 3945.3135,296.75 Q3943.7979,296.75 3942.5947,296.125 Q3941.6104,295.625 3940.9229,294.5625 Q3940.2354,293.4844 3940.2354,292.2031 L3940.2354,291.0469 Q3940.2354,289.7188 3940.8447,288.5781 Q3941.4697,287.4219 3942.5635,286.8125 Q3943.6572,286.1875 3944.8916,286.1875 Q3945.626,286.1875 3946.2666,286.3594 Q3946.9229,286.5156 3947.4697,286.875 Z " fill="#000000"/><text fill="#000000" font-family="sans-serif" font-size="10" lengthAdjust="spacing" textLength="42.2461" x="3965.2041" y="295.1406">Jigglypuff</text><line style="stroke:#181818;stroke-width:0.5;" x1="3857.5" x2="4082.6543" y1="307" y2="307"/><line style="stroke:#181818;stroke-width:0.5;" x1="3857.5" x2="4082.6543" y1="315" y2="315"/><text fill="#000000" font-family="sans-serif" font-size="14" lengthAdjust="spacing" textLength="215.1543" x="3862.5" y="334.1074">+Jigglypuff(name: String, level: int)</text></g><!--class Wigglytuff--><g class="entity" data-entity="Wigglytuff" data-source-line="114" data-uid="ent0029" id="entity_Wigglytuff"><rect fill="#F1F1F1" height="66.6211" rx="5" ry="5" style="stroke:#181818;stroke-width:0.5;" width="229.4717" x="3722.5" y="476"/><ellipse cx="3811.0352" cy="492" fill="#ADD1B2" rx="11" ry="11" style="stroke:#181818;stroke-width:1;"/><path d="M3813.8008,487.875 Q3813.957,487.6563 3814.1445,487.5469 Q3814.332,487.4375 3814.5508,487.4375 Q3814.9258,487.4375 3815.1602,487.7031 Q3815.3945,487.9531 3815.3945,488.5625 L3815.3945,490.0156 Q3815.3945,490.625 3815.1602,490.8906 Q3814.9258,491.1563 3814.5508,491.1563 Q3814.207,491.1563 3814.0039,490.9531 Q3813.8008,490.7656 3813.6914,490.25 Q3813.6445,489.8906 3813.457,489.7031 Q3813.1289,489.3281 3812.5195,489.1094 Q3811.9102,488.8906 3811.2852,488.8906 Q3810.5195,488.8906 3809.8789,489.2188 Q3809.2539,489.5469 3808.7539,490.2969 Q3808.2695,491.0469 3808.2695,492.0781 L3808.2695,493.1719 Q3808.2695,494.4063 3809.1602,495.2344 Q3810.0508,496.0469 3811.6445,496.0469 Q3812.582,496.0469 3813.2383,495.7969 Q3813.6289,495.6406 3814.0508,495.2031 Q3814.3164,494.9375 3814.457,494.8594 Q3814.6133,494.7813 3814.8164,494.7813 Q3815.1445,494.7813 3815.3945,495.0469 Q3815.6602,495.2969 3815.6602,495.6406 Q3815.6602,495.9844 3815.3164,496.3906 Q3814.8164,496.9688 3814.0195,497.2969 Q3812.9414,497.75 3811.6445,497.75 Q3810.1289,497.75 3808.9258,497.125 Q3807.9414,496.625 3807.2539,495.5625 Q3806.5664,494.4844 3806.5664,493.2031 L3806.5664,492.0469 Q3806.5664,490.7188 3807.1758,489.5781 Q3807.8008,488.4219 3808.8945,487.8125 Q3809.9883,487.1875 3811.2227,487.1875 Q3811.957,487.1875 3812.5977,487.3594 Q3813.2539,487.5156 3813.8008,487.875 Z " fill="#000000"/><text fill="#000000" font-family="sans-serif" font-size="10" lengthAdjust="spacing" textLength="43.9014" x="3831.5352" y="496.1406">Wigglytuff</text><line style="stroke:#181818;stroke-width:0.5;" x1="3723.5" x2="3950.9717" y1="508" y2="508"/><line style="stroke:#181818;stroke-width:0.5;" x1="3723.5" x2="3950.9717" y1="516" y2="516"/><text fill="#000000" font-family="sans-serif" font-size="14" lengthAdjust="spacing" textLength="217.4717" x="3728.5" y="535.1074">+Wigglytuff(name: String, level: int)</text></g><!--class Pineco--><g class="entity" data-entity="Pineco" data-source-line="118" data-uid="ent0030" id="entity_Pineco"><rect fill="#F1F1F1" height="66.6211" rx="5" ry="5" style="stroke:#181818;stroke-width:0.5;" width="210.8164" x="3870.5" y="148"/><ellipse cx="3956.3701" cy="164" fill="#ADD1B2" rx="11" ry="11" style="stroke:#181818;stroke-width:1;"/><path d="M3959.1357,159.875 Q3959.292,159.6563 3959.4795,159.5469 Q3959.667,159.4375 3959.8857,159.4375 Q3960.2607,159.4375 3960.4951,159.7031 Q3960.7295,159.9531 3960.7295,160.5625 L3960.7295,162.0156 Q3960.7295,162.625 3960.4951,162.8906 Q3960.2607,163.1563 3959.8857,163.1563 Q3959.542,163.1563 3959.3389,162.9531 Q3959.1357,162.7656 3959.0264,162.25 Q3958.9795,161.8906 3958.792,161.7031 Q3958.4639,161.3281 3957.8545,161.1094 Q3957.2451,160.8906 3956.6201,160.8906 Q3955.8545,160.8906 3955.2139,161.2188 Q3954.5889,161.5469 3954.0889,162.2969 Q3953.6045,163.0469 3953.6045,164.0781 L3953.6045,165.1719 Q3953.6045,166.4063 3954.4951,167.2344 Q3955.3857,168.0469 3956.9795,168.0469 Q3957.917,168.0469 3958.5732,167.7969 Q3958.9639,167.6406 3959.3857,167.2031 Q3959.6514,166.9375 3959.792,166.8594 Q3959.9482,166.7813 3960.1514,166.7813 Q3960.4795,166.7813 3960.7295,167.0469 Q3960.9951,167.2969 3960.9951,167.6406 Q3960.9951,167.9844 3960.6514,168.3906 Q3960.1514,168.9688 3959.3545,169.2969 Q3958.2764,169.75 3956.9795,169.75 Q3955.4639,169.75 3954.2607,169.125 Q3953.2764,168.625 3952.5889,167.5625 Q3951.9014,166.4844 3951.9014,165.2031 L3951.9014,164.0469 Q3951.9014,162.7188 3952.5107,161.5781 Q3953.1357,160.4219 3954.2295,159.8125 Q3955.3232,159.1875 3956.5576,159.1875 Q3957.292,159.1875 3957.9326,159.3594 Q3958.5889,159.5156 3959.1357,159.875 Z " fill="#000000"/><text fill="#000000" font-family="sans-serif" font-size="10" lengthAdjust="spacing" textLength="30.5762" x="3976.8701" y="168.1406">Pineco</text><line style="stroke:#181818;stroke-width:0.5;" x1="3871.5" x2="4080.3164" y1="180" y2="180"/><line style="stroke:#181818;stroke-width:0.5;" x1="3871.5" x2="4080.3164" y1="188" y2="188"/><text fill="#000000" font-family="sans-serif" font-size="14" lengthAdjust="spacing" textLength="198.8164" x="3876.5" y="207.1074">+Pineco(name: String, level: int)</text></g><!--class Forretress--><g class="entity" data-entity="Forretress" data-source-line="122" data-uid="ent0031" id="entity_Forretress"><rect fill="#F1F1F1" height="66.6211" rx="5" ry="5" style="stroke:#181818;stroke-width:0.5;" width="231.7959" x="3589" y="275"/><ellipse cx="3677.8672" cy="291" fill="#ADD1B2" rx="11" ry="11" style="stroke:#181818;stroke-width:1;"/><path d="M3680.6328,286.875 Q3680.7891,286.6563 3680.9766,286.5469 Q3681.1641,286.4375 3681.3828,286.4375 Q3681.7578,286.4375 3681.9922,286.7031 Q3682.2266,286.9531 3682.2266,287.5625 L3682.2266,289.0156 Q3682.2266,289.625 3681.9922,289.8906 Q3681.7578,290.1563 3681.3828,290.1563 Q3681.0391,290.1563 3680.8359,289.9531 Q3680.6328,289.7656 3680.5234,289.25 Q3680.4766,288.8906 3680.2891,288.7031 Q3679.9609,288.3281 3679.3516,288.1094 Q3678.7422,287.8906 3678.1172,287.8906 Q3677.3516,287.8906 3676.7109,288.2188 Q3676.0859,288.5469 3675.5859,289.2969 Q3675.1016,290.0469 3675.1016,291.0781 L3675.1016,292.1719 Q3675.1016,293.4063 3675.9922,294.2344 Q3676.8828,295.0469 3678.4766,295.0469 Q3679.4141,295.0469 3680.0703,294.7969 Q3680.4609,294.6406 3680.8828,294.2031 Q3681.1484,293.9375 3681.2891,293.8594 Q3681.4453,293.7813 3681.6484,293.7813 Q3681.9766,293.7813 3682.2266,294.0469 Q3682.4922,294.2969 3682.4922,294.6406 Q3682.4922,294.9844 3682.1484,295.3906 Q3681.6484,295.9688 3680.8516,296.2969 Q3679.7734,296.75 3678.4766,296.75 Q3676.9609,296.75 3675.7578,296.125 Q3674.7734,295.625 3674.0859,294.5625 Q3673.3984,293.4844 3673.3984,292.2031 L3673.3984,291.0469 Q3673.3984,289.7188 3674.0078,288.5781 Q3674.6328,287.4219 3675.7266,286.8125 Q3676.8203,286.1875 3678.0547,286.1875 Q3678.7891,286.1875 3679.4297,286.3594 Q3680.0859,286.5156 3680.6328,286.875 Z " fill="#000000"/><text fill="#000000" font-family="sans-serif" font-size="10" lengthAdjust="spacing" textLength="45.5615" x="3698.3672" y="295.1406">Forretress</text><line style="stroke:#181818;stroke-width:0.5;" x1="3590" x2="3819.7959" y1="307" y2="307"/><line style="stroke:#181818;stroke-width:0.5;" x1="3590" x2="3819.7959" y1="315" y2="315"/><text fill="#000000" font-family="sans-serif" font-size="14" lengthAdjust="spacing" textLength="219.7959" x="3595" y="334.1074">+Forretress(name: String, level: int)</text></g><!--reverse link Move to DamageMove--><g class="link" data-entity-1="Move" data-entity-2="DamageMove" data-source-line="128" data-uid="lnk32" id="link_Move_DamageMove"><path codeLine="128" d="M1338.33,106.06 C1338.33,126.34 1338.33,137.2 1338.33,157.47" fill="none" id="Move-backto-DamageMove" style="stroke:#181818;stroke-width:1;"/><polygon fill="none" points="1338.33,88.06,1332.33,106.06,1344.33,106.06,1338.33,88.06" style="stroke:#181818;stroke-width:1;"/></g><!--reverse link Move to StatusMove--><g class="link" data-entity-1="Move" data-entity-2="StatusMove" data-source-line="129" data-uid="lnk33" id="link_Move_StatusMove"><path codeLine="129" d="M1319.67,106.06 C1319.67,120.66 1319.67,118.5 1319.67,118.5 C1319.67,118.5 1479.25,118.5 1479.25,118.5 C1479.25,118.5 1479.25,139.56 1479.25,157.32" fill="none" id="Move-backto-StatusMove" style="stroke:#181818;stroke-width:1;"/><polygon fill="none" points="1319.67,88.06,1313.67,106.06,1325.67,106.06,1319.67,88.06" style="stroke:#181818;stroke-width:1;"/></g><!--reverse link DamageMove to PhysicalMove--><g class="link" data-entity-1="DamageMove" data-entity-2="PhysicalMove" data-source-line="130" data-uid="lnk34" id="link_DamageMove_PhysicalMove"><path codeLine="130" d="M1348,223.69 C1348,246.28 1348,261.83 1348,284.4" fill="none" id="DamageMove-backto-PhysicalMove" style="stroke:#181818;stroke-width:1;"/><polygon fill="none" points="1348,205.69,1342,223.69,1354,223.69,1348,205.69" style="stroke:#181818;stroke-width:1;"/></g><!--reverse link DamageMove to SpecialMove--><g class="link" data-entity-1="DamageMove" data-entity-2="SpecialMove" data-source-line="131" data-uid="lnk35" id="link_DamageMove_SpecialMove"><path codeLine="131" d="M1413.17,189.5 C1447.5,189.5 1470,189.5 1470,189.5 C1470,189.5 1470,249.65 1470,284.42" fill="none" id="DamageMove-backto-SpecialMove" style="stroke:#181818;stroke-width:1;"/><polygon fill="none" points="1395.17,189.5,1413.17,195.5,1413.17,183.5,1395.17,189.5" style="stroke:#181818;stroke-width:1;"/></g><!--reverse link PhysicalMove to DizzyPunch--><g class="link" data-entity-1="PhysicalMove" data-entity-2="DizzyPunch" data-source-line="134" data-uid="lnk36" id="link_PhysicalMove_DizzyPunch"><path codeLine="134" d="M1282.81,300.5 C1069.6,300.5 224.67,300.5 224.67,300.5 C224.67,300.5 224.67,395.4 224.67,457.3" fill="none" id="PhysicalMove-backto-DizzyPunch" style="stroke:#181818;stroke-width:1;"/><polygon fill="none" points="1300.81,300.5,1282.81,294.5,1282.81,306.5,1300.81,300.5" style="stroke:#181818;stroke-width:1;"/></g><!--reverse link PhysicalMove to ShadowClaw--><g class="link" data-entity-1="PhysicalMove" data-entity-2="ShadowClaw" data-source-line="135" data-uid="lnk37" id="link_PhysicalMove_ShadowClaw"><path codeLine="135" d="M1282.79,316.5 C1095.67,316.5 434.17,316.5 434.17,316.5 C434.17,316.5 434.17,409.81 434.17,466.67" fill="none" id="PhysicalMove-backto-ShadowClaw" style="stroke:#181818;stroke-width:1;"/><polygon fill="none" points="1300.79,316.5,1282.79,310.5,1282.79,322.5,1300.79,316.5" style="stroke:#181818;stroke-width:1;"/></g><!--reverse link PhysicalMove to WakeUpSlap--><g class="link" data-entity-1="PhysicalMove" data-entity-2="WakeUpSlap" data-source-line="136" data-uid="lnk38" id="link_PhysicalMove_WakeUpSlap"><path codeLine="136" d="M1348,350.59 C1348,391.1 1348,450.5 1348,450.5 C1348,450.5 1088.12,450.5 898.79,450.5" fill="none" id="PhysicalMove-backto-WakeUpSlap" style="stroke:#181818;stroke-width:1;"/><polygon fill="none" points="1348,332.59,1342,350.59,1354,350.59,1348,332.59" style="stroke:#181818;stroke-width:1;"/></g><!--reverse link SpecialMove to DreamEater--><g class="link" data-entity-1="SpecialMove" data-entity-2="DreamEater" data-source-line="139" data-uid="lnk39" id="link_SpecialMove_DreamEater"><path codeLine="139" d="M1573.57,308.5 C1816.03,308.5 2947.5,308.5 2947.5,308.5 C2947.5,308.5 2947.5,397.92 2947.5,457.48" fill="none" id="SpecialMove-backto-DreamEater" style="stroke:#181818;stroke-width:1;"/><polygon fill="none" points="1555.57,308.5,1573.57,314.5,1573.57,302.5,1555.57,308.5" style="stroke:#181818;stroke-width:1;"/></g><!--reverse link SpecialMove to Flamethrower--><g class="link" data-entity-1="SpecialMove" data-entity-2="Flamethrower" data-source-line="140" data-uid="lnk40" id="link_SpecialMove_Flamethrower"><path codeLine="140" d="M1573.56,320.5 C1778.7,320.5 2604.33,320.5 2604.33,320.5 C2604.33,320.5 2604.33,401.41 2604.33,457.35" fill="none" id="SpecialMove-backto-Flamethrower" style="stroke:#181818;stroke-width:1;"/><polygon fill="none" points="1555.56,320.5,1573.56,326.5,1573.56,314.5,1555.56,320.5" style="stroke:#181818;stroke-width:1;"/></g><!--reverse link SpecialMove to MirrorShot--><g class="link" data-entity-1="SpecialMove" data-entity-2="MirrorShot" data-source-line="141" data-uid="lnk41" id="link_SpecialMove_MirrorShot"><path codeLine="141" d="M1573.69,296.5 C1857.16,296.5 3375,296.5 3375,296.5 C3375,296.5 3375,394.34 3375,457.39" fill="none" id="SpecialMove-backto-MirrorShot" style="stroke:#181818;stroke-width:1;"/><polygon fill="none" points="1555.69,296.5,1573.69,302.5,1573.69,290.5,1555.69,296.5" style="stroke:#181818;stroke-width:1;"/></g><!--reverse link StatusMove to DoubleTeam--><g class="link" data-entity-1="StatusMove" data-entity-2="DoubleTeam" data-source-line="144" data-uid="lnk42" id="link_StatusMove_DoubleTeam"><path codeLine="144" d="M1576.56,169.5 C1736.2,169.5 2272.33,169.5 2272.33,169.5 C2272.33,169.5 2272.33,362.25 2272.33,457.49" fill="none" id="StatusMove-backto-DoubleTeam" style="stroke:#181818;stroke-width:1;"/><polygon fill="none" points="1558.56,169.5,1576.56,175.5,1576.56,163.5,1558.56,169.5" style="stroke:#181818;stroke-width:1;"/></g><!--reverse link StatusMove to IronDefense--><g class="link" data-entity-1="StatusMove" data-entity-2="IronDefense" data-source-line="145" data-uid="lnk43" id="link_StatusMove_IronDefense"><path codeLine="145" d="M1576.72,181.5 C1687.48,181.5 1957.33,181.5 1957.33,181.5 C1957.33,181.5 1957.33,364.56 1957.33,457.16" fill="none" id="StatusMove-backto-IronDefense" style="stroke:#181818;stroke-width:1;"/><polygon fill="none" points="1558.72,181.5,1576.72,187.5,1576.72,175.5,1558.72,181.5" style="stroke:#181818;stroke-width:1;"/></g><!--reverse link StatusMove to Sing--><g class="link" data-entity-1="StatusMove" data-entity-2="Sing" data-source-line="146" data-uid="lnk44" id="link_StatusMove_Sing"><path codeLine="146" d="M1514.5,223.71 C1514.5,223.71 1044.33,210.5 1044.33,210.5 C1044.33,210.5 1044.33,371.75 1044.33,457.42" fill="none" id="StatusMove-backto-Sing" style="stroke:#181818;stroke-width:1;"/><polygon fill="none" points="1514.5,205.71,1508.5,223.71,1520.5,223.71,1514.5,205.71" style="stroke:#181818;stroke-width:1;"/></g><!--reverse link StatusMove to Swagger--><g class="link" data-entity-1="StatusMove" data-entity-2="Swagger" data-source-line="147" data-uid="lnk45" id="link_StatusMove_Swagger"><path codeLine="147" d="M1576.66,193.5 C1608.31,193.5 1628,193.5 1628,193.5 C1628,193.5 1628,367.57 1628,457.32" fill="none" id="StatusMove-backto-Swagger" style="stroke:#181818;stroke-width:1;"/><polygon fill="none" points="1558.66,193.5,1576.66,199.5,1576.66,187.5,1558.66,193.5" style="stroke:#181818;stroke-width:1;"/></g><!--reverse link StatusMove to TailWhip--><g class="link" data-entity-1="StatusMove" data-entity-2="TailWhip" data-source-line="148" data-uid="lnk46" id="link_StatusMove_TailWhip"><path codeLine="148" d="M1455.32,173.5 C1455.32,173.5 1455.5,362.99 1455.5,457.37" fill="none" id="StatusMove-backto-TailWhip" style="stroke:#181818;stroke-width:1;"/><polygon fill="none" points="1473.32,173.5,1455.32,167.5,1455.32,179.5,1473.32,173.5" style="stroke:#181818;stroke-width:1;"/></g><!--reverse link Pokemon to Kangaskhan--><g class="link" data-entity-1="Pokemon" data-entity-2="Kangaskhan" data-source-line="151" data-uid="lnk47" id="link_Pokemon_Kangaskhan"><path codeLine="151" d="M1521.75,106.46 C1521.75,132.96 1521.75,153.5 1521.75,153.5 C1521.75,153.5 3126.46,153.5 3588.76,153.5" fill="none" id="Pokemon-backto-Kangaskhan" style="stroke:#181818;stroke-width:1;"/><polygon fill="none" points="1521.75,88.46,1515.75,106.46,1527.75,106.46,1521.75,88.46" style="stroke:#181818;stroke-width:1;"/></g><!--reverse link Pokemon to Igglybuff--><g class="link" data-entity-1="Pokemon" data-entity-2="Igglybuff" data-source-line="152" data-uid="lnk48" id="link_Pokemon_Igglybuff"><path codeLine="152" d="M1577.21,56.5 C1902.1,56.5 4227,56.5 4227,56.5 C4227,56.5 4227,110.65 4227,147.67" fill="none" id="Pokemon-backto-Igglybuff" style="stroke:#181818;stroke-width:1;"/><polygon fill="none" points="1559.21,56.5,1577.21,62.5,1577.21,50.5,1559.21,56.5" style="stroke:#181818;stroke-width:1;"/></g><!--reverse link Pokemon to Pineco--><g class="link" data-entity-1="Pokemon" data-entity-2="Pineco" data-source-line="153" data-uid="lnk49" id="link_Pokemon_Pineco"><path codeLine="153" d="M1577.08,72.5 C1884.09,72.5 3976,72.5 3976,72.5 C3976,72.5 3976,115.88 3976,147.91" fill="none" id="Pokemon-backto-Pineco" style="stroke:#181818;stroke-width:1;"/><polygon fill="none" points="1559.08,72.5,1577.08,78.5,1577.08,66.5,1559.08,72.5" style="stroke:#181818;stroke-width:1;"/></g><!--reverse link Igglybuff to Jigglypuff--><g class="link" data-entity-1="Igglybuff" data-entity-2="Jigglypuff" data-source-line="156" data-uid="lnk50" id="link_Igglybuff_Jigglypuff"><path codeLine="156" d="M4282.25,233.2 C4282.25,270.82 4282.25,308.5 4282.25,308.5 C4282.25,308.5 4172.89,308.5 4083.61,308.5" fill="none" id="Igglybuff-backto-Jigglypuff" style="stroke:#181818;stroke-width:1;"/><polygon fill="none" points="4282.25,215.2,4276.25,233.2,4288.25,233.2,4282.25,215.2" style="stroke:#181818;stroke-width:1;"/></g><!--reverse link Jigglypuff to Wigglytuff--><g class="link" data-entity-1="Jigglypuff" data-entity-2="Wigglytuff" data-source-line="157" data-uid="lnk51" id="link_Jigglypuff_Wigglytuff"><path codeLine="157" d="M3919.83,360.14 C3919.83,397.25 3919.83,438.6 3919.83,475.75" fill="none" id="Jigglypuff-backto-Wigglytuff" style="stroke:#181818;stroke-width:1;"/><polygon fill="none" points="3919.83,342.14,3913.83,360.14,3925.83,360.14,3919.83,342.14" style="stroke:#181818;stroke-width:1;"/></g><!--reverse link Pineco to Forretress--><g class="link" data-entity-1="Pineco" data-entity-2="Forretress" data-source-line="158" data-uid="lnk52" id="link_Pineco_Forretress"><path codeLine="158" d="M3852.25,181.5 C3837.77,181.5 3845.75,181.5 3845.75,181.5 C3845.75,181.5 3845.75,308.5 3845.75,308.5 C3845.75,308.5 3835.82,308.5 3821.23,308.5" fill="none" id="Pineco-backto-Forretress" style="stroke:#181818;stroke-width:1;"/><polygon fill="none" points="3870.25,181.5,3852.25,175.5,3852.25,187.5,3870.25,181.5" style="stroke:#181818;stroke-width:1;"/></g><!--reverse link Kangaskhan to DizzyPunch--><g class="link" data-entity-1="Kangaskhan" data-entity-2="DizzyPunch" data-source-line="162" data-uid="lnk53" id="link_Kangaskhan_DizzyPunch"><path codeLine="162" d="M3576.88,207.5 C2947.96,207.5 135.33,207.5 135.33,207.5 C135.33,207.5 135.33,370.8 135.33,457.24" fill="none" id="Kangaskhan-backto-DizzyPunch" style="stroke:#181818;stroke-width:1;"/><polygon fill="#181818" points="3588.88,207.5,3582.88,203.5,3576.88,207.5,3582.88,211.5,3588.88,207.5" style="stroke:#181818;stroke-width:1;"/></g><!--reverse link Kangaskhan to ShadowClaw--><g class="link" data-entity-1="Kangaskhan" data-entity-2="ShadowClaw" data-source-line="163" data-uid="lnk54" id="link_Kangaskhan_ShadowClaw"><path codeLine="163" d="M3576.9,209.5 C2976.03,209.5 391.83,209.5 391.83,209.5 C391.83,209.5 391.83,384.01 391.83,466.84" fill="none" id="Kangaskhan-backto-ShadowClaw" style="stroke:#181818;stroke-width:1;"/><polygon fill="#181818" points="3588.9,209.5,3582.9,205.5,3576.9,209.5,3582.9,213.5,3588.9,209.5" style="stroke:#181818;stroke-width:1;"/></g><!--reverse link Kangaskhan to Swagger--><g class="link" data-entity-1="Kangaskhan" data-entity-2="Swagger" data-source-line="164" data-uid="lnk55" id="link_Kangaskhan_Swagger"><path codeLine="164" d="M3576.86,213.5 C3138.94,213.5 1695,213.5 1695,213.5 C1695,213.5 1695,372.29 1695,457.26" fill="none" id="Kangaskhan-backto-Swagger" style="stroke:#181818;stroke-width:1;"/><polygon fill="#181818" points="3588.86,213.5,3582.86,209.5,3576.86,213.5,3582.86,217.5,3588.86,213.5" style="stroke:#181818;stroke-width:1;"/></g><!--reverse link Kangaskhan to TailWhip--><g class="link" data-entity-1="Kangaskhan" data-entity-2="TailWhip" data-source-line="165" data-uid="lnk56" id="link_Kangaskhan_TailWhip"><path codeLine="165" d="M3576.98,212.5 C3106.7,212.5 1461,212.5 1461,212.5 C1461,212.5 1461,372.25 1461,457.43" fill="none" id="Kangaskhan-backto-TailWhip" style="stroke:#181818;stroke-width:1;"/><polygon fill="#181818" points="3588.98,212.5,3582.98,208.5,3576.98,212.5,3582.98,216.5,3588.98,212.5" style="stroke:#181818;stroke-width:1;"/></g><!--reverse link Pineco to Swagger--><g class="link" data-entity-1="Pineco" data-entity-2="Swagger" data-source-line="168" data-uid="lnk57" id="link_Pineco_Swagger"><path codeLine="168" d="M3923.25,227.29 C3923.25,227.29 1762,225.5 1762,225.5 C1762,225.5 1762,375.42 1762,457.41" fill="none" id="Pineco-backto-Swagger" style="stroke:#181818;stroke-width:1;"/><polygon fill="#181818" points="3923.25,215.29,3919.25,221.29,3923.25,227.29,3927.25,221.29,3923.25,215.29" style="stroke:#181818;stroke-width:1;"/></g><!--reverse link Pineco to IronDefense--><g class="link" data-entity-1="Pineco" data-entity-2="IronDefense" data-source-line="169" data-uid="lnk58" id="link_Pineco_IronDefense"><path codeLine="169" d="M3976,227.08 C3976,238.07 3976,235.5 3976,235.5 C3976,235.5 2050.67,235.5 2050.67,235.5 C2050.67,235.5 2050.67,377.82 2050.67,457.32" fill="none" id="Pineco-backto-IronDefense" style="stroke:#181818;stroke-width:1;"/><polygon fill="#181818" points="3976,215.08,3972,221.08,3976,227.08,3980,221.08,3976,215.08" style="stroke:#181818;stroke-width:1;"/></g><!--reverse link Pineco to DoubleTeam--><g class="link" data-entity-1="Pineco" data-entity-2="DoubleTeam" data-source-line="170" data-uid="lnk59" id="link_Pineco_DoubleTeam"><path codeLine="170" d="M4028.75,227.37 C4028.75,242.73 4028.75,245.5 4028.75,245.5 C4028.75,245.5 2365.67,245.5 2365.67,245.5 C2365.67,245.5 2365.67,380.4 2365.67,457.34" fill="none" id="Pineco-backto-DoubleTeam" style="stroke:#181818;stroke-width:1;"/><polygon fill="#181818" points="4028.75,215.37,4024.75,221.37,4028.75,227.37,4032.75,221.37,4028.75,215.37" style="stroke:#181818;stroke-width:1;"/></g><!--reverse link Forretress to MirrorShot--><g class="link" data-entity-1="Forretress" data-entity-2="MirrorShot" data-source-line="173" data-uid="lnk60" id="link_Forretress_MirrorShot"><path codeLine="173" d="M3655.75,354.22 C3655.75,400.89 3655.75,467.5 3655.75,467.5 C3655.75,467.5 3581.39,467.5 3509.21,467.5" fill="none" id="Forretress-backto-MirrorShot" style="stroke:#181818;stroke-width:1;"/><polygon fill="#181818" points="3655.75,342.22,3651.75,348.22,3655.75,354.22,3659.75,348.22,3655.75,342.22" style="stroke:#181818;stroke-width:1;"/></g><!--reverse link Igglybuff to Flamethrower--><g class="link" data-entity-1="Igglybuff" data-entity-2="Flamethrower" data-source-line="176" data-uid="lnk61" id="link_Igglybuff_Flamethrower"><path codeLine="176" d="M4171.75,227.04 C4171.75,246.62 4171.75,255.5 4171.75,255.5 C4171.75,255.5 2693.67,255.5 2693.67,255.5 C2693.67,255.5 2693.67,383.18 2693.67,457.49" fill="none" id="Igglybuff-backto-Flamethrower" style="stroke:#181818;stroke-width:1;"/><polygon fill="#181818" points="4171.75,215.04,4167.75,221.04,4171.75,227.04,4175.75,221.04,4171.75,215.04" style="stroke:#181818;stroke-width:1;"/></g><!--reverse link Igglybuff to DreamEater--><g class="link" data-entity-1="Igglybuff" data-entity-2="DreamEater" data-source-line="177" data-uid="lnk62" id="link_Igglybuff_DreamEater"><path codeLine="177" d="M4227,227.18 C4227,250.55 4227,265.5 4227,265.5 C4227,265.5 3076.5,265.5 3076.5,265.5 C3076.5,265.5 3076.5,385.8 3076.5,457.46" fill="none" id="Igglybuff-backto-DreamEater" style="stroke:#181818;stroke-width:1;"/><polygon fill="#181818" points="4227,215.18,4223,221.18,4227,227.18,4231,221.18,4227,215.18" style="stroke:#181818;stroke-width:1;"/></g><!--reverse link Jigglypuff to WakeUpSlap--><g class="link" data-entity-1="Jigglypuff" data-entity-2="WakeUpSlap" data-source-line="180" data-uid="lnk63" id="link_Jigglypuff_WakeUpSlap"><path codeLine="180" d="M3888.17,354.36 C3888.17,397.49 3888.17,454.5 3888.17,454.5 C3888.17,454.5 1589.12,454.5 898.73,454.5" fill="none" id="Jigglypuff-backto-WakeUpSlap" style="stroke:#181818;stroke-width:1;"/><polygon fill="#181818" points="3888.17,342.36,3884.17,348.36,3888.17,354.36,3892.17,348.36,3888.17,342.36" style="stroke:#181818;stroke-width:1;"/></g><!--reverse link Wigglytuff to Sing--><g class="link" data-entity-1="Wigglytuff" data-entity-2="Sing" data-source-line="183" data-uid="lnk64" id="link_Wigglytuff_Sing"><path codeLine="183" d="M3771.75,463.93 C3771.75,453.42 3771.75,456.5 3771.75,456.5 C3771.75,456.5 1133.67,456.5 1133.67,456.5 C1133.67,456.5 1133.67,456.82 1133.67,457.42" fill="none" id="Wigglytuff-backto-Sing" style="stroke:#181818;stroke-width:1;"/><polygon fill="#181818" points="3771.75,475.93,3775.75,469.93,3771.75,463.93,3767.75,469.93,3771.75,475.93" style="stroke:#181818;stroke-width:1;"/></g><!--link WakeUpSlap to Effect--><g class="link" data-entity-1="WakeUpSlap" data-entity-2="Effect" data-source-line="187" data-uid="lnk65" id="link_WakeUpSlap_Effect"><path codeLine="187" d="M898.69,452.5 C1111.2,452.5 1422.5,452.5 1422.5,452.5 C1422.5,452.5 1422.5,178.71 1422.5,94.01" fill="none" id="WakeUpSlap-to-Effect" style="stroke:#181818;stroke-width:1;"/><polygon fill="#181818" points="1422.5,88.01,1418.5,97.01,1422.5,93.01,1426.5,97.01,1422.5,88.01" style="stroke:#181818;stroke-width:1;"/></g><!--SRC=[jLTVQnj747-_Jx7a9R8IcxQFeYs4n8Qqc1YKr8zbTLf9Xqwtn-tAHavTiDCcWPRYbfWOnqvYDsqVt10JAkB6jViLzhvHv_R-xDoTP0iQMU3R_StkpEpysrdHTJoV1hH7R9SASKFAm6dq9RjjSw_kh37oaINoInQu9pNbOqpogTsbRMQ8dumXoe7BI8ExJKGN7ThaguxN9Ytg2eOe0UzxJPi77Wloybp7OtBWCy83sU6MPLqbdutu8-g5sbAxQbiTreZw6SPFrNFrYpfIsmJWPm0SmEzev6OhqPjS2VfpJgl7vmIRytcNzRXtXL116bGmSjyYiM78KamYzzSpQ96lC3o_HNl0i8ZM9PLzKKINEWFXsDGjhVQPxPJX-LQBsJ92rYUpnfOwrBCTKbcyyzLyVUPY8_H0de3JWa3CdQXNQWUikgF-0Bu74R_8jeOvOaNII21-SZPjlSmupjhQOAdlsPq49kGQ0Yip2VWjeRxl3kxuVdncKP4qQ3DPIpqmKoCht6bcovjCs13Mh0A4EWIurzQaTGi9h-iOlEdILIJSW4Zu9DoMQPVTy-ikzH4t0uuuIXmPnPDS9qsDrqYJznikAvxiGnaYKJ_ls0C8bstrEpXq2pBbJxKVfyqbhXLnU7uTAvvtSC1eRvvAI6Rau0pyO5QPn4CBBkqnsGduQauR34ytu1QT8E11lSCb4c_0AGWVu-H3xT5VOJIXWtMroZjMk-4kE1BvDSEAHwapjvMUXKe9R5dmlqnvE-3UBTPYdc38bWYTkWRrwF92TGEcKovNgxJTpaLkWanNx5tgkCiT1rUr59fIm4vucRs0QpqQxy5t_xBxFBd31RgxlwHUcufkXth9qQuXgE91KKXrkqvSjiBS6d4yEPFcL1A7xROxQFHRhOn7XapAuWidsk5Z7WQQbCcotY4n4mDDocG9EYoRPmpYwQIR5tWGC1am8J861hg4oGKUtzVzsZFmynFTncq14hKRbUY_UWdpb-et6ByPqyledkdJRsPdKIE6GDE7MQXHqoJSZ9M8g2EBT0UbZiCDTQg6wYzrhjwgOtMcJjIGXD_1vvqw2H-f8Inu3wFl2QpTX1NlhLo_5okPzJuZYAOt6K4qhSR52cseVq6LXp0vLgVXZ-ei_06hX5lDMAFiiYxJyDLPffgRxHAD8j7XPlW0o4LjJ9iSAvFTC2KIglqbMbISos1SFKjuMjqkL1gCU0xU7Af_u7iMaI0Yty9e63xMI_ucG3wDTeSRMHMqqlU25cIgJHxFAaWUZjDHQ_KQH9s3ztxIVemK0Bj5fdm86e5c46qGQPOfJfg1gIeMgZbny6IrmagAGEpVB8779-WkfEMUBiRHYo1g7T-0ANB5cG2u1nEeswZL69EmLpFlgnDi8bIkg_b4AL1GbXGfYSSBSCxXHdPYxyGUU3-2SDGX6CLfdYcoA2gOrNAsc2qc78m_gyNaovDGpkPvZGw1Qhbyc2qeDD0bKqspQcnSnC_ivybZ8esBr_1sV0M1i0jHS3Gs0j1R2WhcXawsg5Qz2nz0Wcqc3ryBBPkT_Jn5_mC0]--></g></svg>