<svg xmlns="http://www.w3.org/2000/svg" xmlns:xlink="http://www.w3.org/1999/xlink" contentStyleType="text/css" data-diagram-type="CLASS" height="662.2px" preserveAspectRatio="none" style="width:891px;height:662px;background:#FFFFFF;" version="1.1" viewBox="0 0 891 662" width="891.1px" zoomAndPan="magnify"><defs/><g><!--class Entity--><g class="entity" data-entity="Entity" data-source-line="5" data-uid="ent0002" id="entity_Entity"><rect fill="#F1F1F1" height="59.6695" rx="1.75" ry="1.75" style="stroke:#181818;stroke-width:0.35;" width="178.3353" x="4.9" y="17.85"/><ellipse cx="78.8378" cy="29.05" fill="#A9DCDF" rx="7.7" ry="7.7" style="stroke:#181818;stroke-width:0.7;"/><path d="M80.3691,30.2859 L77.4707,30.2859 L77.1753,31.0078 L77.4707,31.0078 Q77.8972,31.0078 78.0832,31.1719 Q78.2691,31.3359 78.2691,31.6094 Q78.2691,31.8719 78.0832,32.0359 Q77.8972,32.2 77.4707,32.2 L75.8628,32.2 Q75.4363,32.2 75.2613,32.0359 Q75.0753,31.8719 75.0753,31.5984 Q75.0753,31.3359 75.2722,31.1719 Q75.4582,30.9969 75.8957,31.0078 L77.766,26.3484 L76.9894,26.3484 Q76.5628,26.3484 76.3769,26.1844 Q76.191,26.0203 76.191,25.7469 Q76.191,25.4844 76.3769,25.3203 Q76.5628,25.1562 76.9894,25.1562 L79.5597,25.1562 L81.9332,31.0078 Q82.3488,31.0078 82.48,31.1062 Q82.7535,31.2922 82.7535,31.6094 Q82.7535,31.8719 82.5675,32.0359 Q82.3925,32.2 81.966,32.2 L80.3582,32.2 Q79.9316,32.2 79.7457,32.0359 Q79.5597,31.8719 79.5597,31.5984 Q79.5597,31.3359 79.7457,31.1719 Q79.9316,31.0078 80.3582,31.0078 L80.6535,31.0078 L80.3691,30.2859 Z M79.866,29.0937 L78.9144,26.7312 L77.9519,29.0937 L79.866,29.0937 Z " fill="#000000"/><text fill="#000000" font-family="sans-serif" font-size="9.8" font-style="italic" lengthAdjust="spacing" textLength="24.5096" x="93.1878" y="33.1078">Entity</text><line style="stroke:#181818;stroke-width:0.35;" x1="5.6" x2="182.5353" y1="40.25" y2="40.25"/><rect fill="none" height="4.2" style="stroke:#C82930;stroke-width:0.7;" width="4.2" x="10.5" y="48.5174"/><text fill="#000000" font-family="sans-serif" font-size="9.8" lengthAdjust="spacing" textLength="76.8065" x="18.9" y="53.6252">state : EntityState</text><line style="stroke:#181818;stroke-width:0.35;" x1="5.6" x2="182.5353" y1="58.8848" y2="58.8848"/><ellipse cx="12.6" cy="69.2521" fill="#84BE84" rx="2.1" ry="2.1" style="stroke:#038048;stroke-width:0.7;"/><text fill="#000000" font-family="sans-serif" font-size="9.8" lengthAdjust="spacing" textLength="160.1353" x="18.9" y="72.26">act(environment: Environment) : void</text></g><!--class Memory--><g class="entity" data-entity="Memory" data-source-line="13" data-uid="ent0003" id="entity_Memory"><rect fill="#F1F1F1" height="85.7391" rx="1.75" ry="1.75" style="stroke:#181818;stroke-width:0.35;" width="177.8089" x="208.25" y="4.9"/><ellipse cx="276.4839" cy="16.1" fill="#B4A7E5" rx="7.7" ry="7.7" style="stroke:#181818;stroke-width:0.7;"/><path d="M277.1511,13.7484 L277.1511,18.4078 L278.3542,18.4078 Q278.7808,18.4078 278.9667,18.5719 Q279.1527,18.7359 279.1527,19.0094 Q279.1527,19.2719 278.9667,19.4359 Q278.7808,19.6 278.3542,19.6 L274.7558,19.6 Q274.3292,19.6 274.1433,19.4359 Q273.9574,19.2719 273.9574,18.9984 Q273.9574,18.7359 274.1433,18.5719 Q274.3292,18.4078 274.7558,18.4078 L275.9589,18.4078 L275.9589,13.7484 L274.7558,13.7484 Q274.3292,13.7484 274.1433,13.5844 Q273.9574,13.4203 273.9574,13.1469 Q273.9574,12.8844 274.1433,12.7203 Q274.3292,12.5562 274.7558,12.5562 L278.3542,12.5562 Q278.7808,12.5562 278.9667,12.7203 Q279.1527,12.8844 279.1527,13.1469 Q279.1527,13.4203 278.9667,13.5844 Q278.7808,13.7484 278.3542,13.7484 L277.1511,13.7484 Z " fill="#000000"/><text fill="#000000" font-family="sans-serif" font-size="9.8" font-style="italic" lengthAdjust="spacing" textLength="35.391" x="290.8339" y="20.1578">Memory</text><line style="stroke:#181818;stroke-width:0.35;" x1="208.95" x2="385.3589" y1="27.3" y2="27.3"/><line style="stroke:#181818;stroke-width:0.35;" x1="208.95" x2="385.3589" y1="32.9" y2="32.9"/><ellipse cx="215.95" cy="43.2674" fill="#84BE84" rx="2.1" ry="2.1" style="stroke:#038048;stroke-width:0.7;"/><text fill="#000000" font-family="sans-serif" font-size="9.8" lengthAdjust="spacing" textLength="117.1167" x="222.25" y="46.2752">think(thought: String) : void</text><ellipse cx="215.95" cy="56.3021" fill="#84BE84" rx="2.1" ry="2.1" style="stroke:#038048;stroke-width:0.7;"/><text fill="#000000" font-family="sans-serif" font-size="9.8" lengthAdjust="spacing" textLength="134.5251" x="222.25" y="59.31">remember(action: String) : void</text><ellipse cx="215.95" cy="69.3369" fill="#84BE84" rx="2.1" ry="2.1" style="stroke:#038048;stroke-width:0.7;"/><text fill="#000000" font-family="sans-serif" font-size="9.8" lengthAdjust="spacing" textLength="138.9083" x="222.25" y="72.3447">understand(action: String) : void</text><ellipse cx="215.95" cy="82.3717" fill="#84BE84" rx="2.1" ry="2.1" style="stroke:#038048;stroke-width:0.7;"/><text fill="#000000" font-family="sans-serif" font-size="9.8" lengthAdjust="spacing" textLength="159.6089" x="222.25" y="85.3795">dontUnderstand(action: String) : void</text></g><!--class Hearing--><g class="entity" data-entity="Hearing" data-source-line="20" data-uid="ent0004" id="entity_Hearing"><rect fill="#F1F1F1" height="46.6348" rx="1.75" ry="1.75" style="stroke:#181818;stroke-width:0.35;" width="130.9718" x="410.9" y="24.15"/><ellipse cx="456.2513" cy="35.35" fill="#B4A7E5" rx="7.7" ry="7.7" style="stroke:#181818;stroke-width:0.7;"/><path d="M456.9185,32.9984 L456.9185,37.6578 L458.1216,37.6578 Q458.5482,37.6578 458.7341,37.8219 Q458.9201,37.9859 458.9201,38.2594 Q458.9201,38.5219 458.7341,38.6859 Q458.5482,38.85 458.1216,38.85 L454.5232,38.85 Q454.0966,38.85 453.9107,38.6859 Q453.7248,38.5219 453.7248,38.2484 Q453.7248,37.9859 453.9107,37.8219 Q454.0966,37.6578 454.5232,37.6578 L455.7263,37.6578 L455.7263,32.9984 L454.5232,32.9984 Q454.0966,32.9984 453.9107,32.8344 Q453.7248,32.6703 453.7248,32.3969 Q453.7248,32.1344 453.9107,31.9703 Q454.0966,31.8062 454.5232,31.8062 L458.1216,31.8062 Q458.5482,31.8062 458.7341,31.9703 Q458.9201,32.1344 458.9201,32.3969 Q458.9201,32.6703 458.7341,32.8344 Q458.5482,32.9984 458.1216,32.9984 L456.9185,32.9984 Z " fill="#000000"/><text fill="#000000" font-family="sans-serif" font-size="9.8" font-style="italic" lengthAdjust="spacing" textLength="34.3191" x="470.6013" y="39.4078">Hearing</text><line style="stroke:#181818;stroke-width:0.35;" x1="411.6" x2="541.1718" y1="46.55" y2="46.55"/><line style="stroke:#181818;stroke-width:0.35;" x1="411.6" x2="541.1718" y1="52.15" y2="52.15"/><ellipse cx="418.6" cy="62.5174" fill="#84BE84" rx="2.1" ry="2.1" style="stroke:#038048;stroke-width:0.7;"/><text fill="#000000" font-family="sans-serif" font-size="9.8" lengthAdjust="spacing" textLength="112.7718" x="424.9" y="65.5252">hear(sound: Sound) : void</text></g><!--class Feeling--><g class="entity" data-entity="Feeling" data-source-line="24" data-uid="ent0005" id="entity_Feeling"><rect fill="#F1F1F1" height="85.7391" rx="1.75" ry="1.75" style="stroke:#181818;stroke-width:0.35;" width="163.0945" x="566.3" y="4.9"/><ellipse cx="628.8013" cy="16.1" fill="#B4A7E5" rx="7.7" ry="7.7" style="stroke:#181818;stroke-width:0.7;"/><path d="M629.4685,13.7484 L629.4685,18.4078 L630.6716,18.4078 Q631.0982,18.4078 631.2841,18.5719 Q631.4701,18.7359 631.4701,19.0094 Q631.4701,19.2719 631.2841,19.4359 Q631.0982,19.6 630.6716,19.6 L627.0732,19.6 Q626.6466,19.6 626.4607,19.4359 Q626.2748,19.2719 626.2748,18.9984 Q626.2748,18.7359 626.4607,18.5719 Q626.6466,18.4078 627.0732,18.4078 L628.2763,18.4078 L628.2763,13.7484 L627.0732,13.7484 Q626.6466,13.7484 626.4607,13.5844 Q626.2748,13.4203 626.2748,13.1469 Q626.2748,12.8844 626.4607,12.7203 Q626.6466,12.5562 627.0732,12.5562 L630.6716,12.5562 Q631.0982,12.5562 631.2841,12.7203 Q631.4701,12.8844 631.4701,13.1469 Q631.4701,13.4203 631.2841,13.5844 Q631.0982,13.7484 630.6716,13.7484 L629.4685,13.7484 Z " fill="#000000"/><text fill="#000000" font-family="sans-serif" font-size="9.8" font-style="italic" lengthAdjust="spacing" textLength="32.1419" x="643.1513" y="20.1578">Feeling</text><line style="stroke:#181818;stroke-width:0.35;" x1="567" x2="728.6945" y1="27.3" y2="27.3"/><line style="stroke:#181818;stroke-width:0.35;" x1="567" x2="728.6945" y1="32.9" y2="32.9"/><ellipse cx="574" cy="43.2674" fill="#84BE84" rx="2.1" ry="2.1" style="stroke:#038048;stroke-width:0.7;"/><text fill="#000000" font-family="sans-serif" font-size="9.8" lengthAdjust="spacing" textLength="122.5574" x="580.3" y="46.2752">feel(state: EntityState) : void</text><ellipse cx="574" cy="56.3021" fill="#84BE84" rx="2.1" ry="2.1" style="stroke:#038048;stroke-width:0.7;"/><text fill="#000000" font-family="sans-serif" font-size="9.8" lengthAdjust="spacing" textLength="105.6706" x="580.3" y="59.31">feel(action: String) : void</text><ellipse cx="574" cy="69.3369" fill="#84BE84" rx="2.1" ry="2.1" style="stroke:#038048;stroke-width:0.7;"/><text fill="#000000" font-family="sans-serif" font-size="9.8" lengthAdjust="spacing" textLength="144.8945" x="580.3" y="72.3447">dontFeel(state: EntityState) : void</text><ellipse cx="574" cy="82.3717" fill="#84BE84" rx="2.1" ry="2.1" style="stroke:#038048;stroke-width:0.7;"/><text fill="#000000" font-family="sans-serif" font-size="9.8" lengthAdjust="spacing" textLength="128.0077" x="580.3" y="85.3795">dontFeel(action: String) : void</text></g><!--class Character--><g class="entity" data-entity="Character" data-source-line="34" data-uid="ent0006" id="entity_Character"><rect fill="#F1F1F1" height="281.2605" rx="1.75" ry="1.75" style="stroke:#181818;stroke-width:0.35;" width="178.3353" x="232.4" y="133"/><ellipse cx="297.0786" cy="144.2" fill="#ADD1B2" rx="7.7" ry="7.7" style="stroke:#181818;stroke-width:0.7;"/><path d="M299.0145,141.3125 Q299.1239,141.1594 299.2551,141.0828 Q299.3864,141.0062 299.5395,141.0062 Q299.802,141.0062 299.9661,141.1922 Q300.1301,141.3672 300.1301,141.7937 L300.1301,142.8109 Q300.1301,143.2375 299.9661,143.4234 Q299.802,143.6094 299.5395,143.6094 Q299.2989,143.6094 299.1567,143.4672 Q299.0145,143.3359 298.9379,142.975 Q298.9051,142.7234 298.7739,142.5922 Q298.5442,142.3297 298.1176,142.1766 Q297.6911,142.0234 297.2536,142.0234 Q296.7176,142.0234 296.2692,142.2531 Q295.8317,142.4828 295.4817,143.0078 Q295.1426,143.5328 295.1426,144.2547 L295.1426,145.0203 Q295.1426,145.8844 295.7661,146.4641 Q296.3895,147.0328 297.5051,147.0328 Q298.1614,147.0328 298.6208,146.8578 Q298.8942,146.7484 299.1895,146.4422 Q299.3754,146.2562 299.4739,146.2016 Q299.5833,146.1469 299.7254,146.1469 Q299.9551,146.1469 300.1301,146.3328 Q300.3161,146.5078 300.3161,146.7484 Q300.3161,146.9891 300.0754,147.2734 Q299.7254,147.6781 299.1676,147.9078 Q298.4129,148.225 297.5051,148.225 Q296.4442,148.225 295.602,147.7875 Q294.9129,147.4375 294.4317,146.6937 Q293.9504,145.9391 293.9504,145.0422 L293.9504,144.2328 Q293.9504,143.3031 294.377,142.5047 Q294.8145,141.6953 295.5801,141.2687 Q296.3458,140.8312 297.2098,140.8312 Q297.7239,140.8312 298.1723,140.9516 Q298.6317,141.0609 299.0145,141.3125 Z " fill="#000000"/><text fill="#000000" font-family="sans-serif" font-size="9.8" lengthAdjust="spacing" textLength="43.0281" x="311.4286" y="148.2578">Character</text><line style="stroke:#181818;stroke-width:0.35;" x1="233.1" x2="410.0353" y1="155.4" y2="155.4"/><rect fill="none" height="4.2" style="stroke:#C82930;stroke-width:0.7;" width="4.2" x="238" y="163.6674"/><text fill="#000000" font-family="sans-serif" font-size="9.8" lengthAdjust="spacing" textLength="58.2832" x="246.4" y="168.7752">name : String</text><rect fill="none" height="4.2" style="stroke:#C82930;stroke-width:0.7;" width="4.2" x="238" y="176.7021"/><text fill="#000000" font-family="sans-serif" font-size="9.8" lengthAdjust="spacing" textLength="78.9838" x="246.4" y="181.81">emotion : Emotion</text><rect fill="none" height="4.2" style="stroke:#C82930;stroke-width:0.7;" width="4.2" x="238" y="189.7369"/><text fill="#000000" font-family="sans-serif" font-size="9.8" lengthAdjust="spacing" textLength="79.5532" x="246.4" y="194.8447">sleeping : boolean</text><rect fill="none" height="4.2" style="stroke:#C82930;stroke-width:0.7;" width="4.2" x="238" y="202.7717"/><text fill="#000000" font-family="sans-serif" font-size="9.8" lengthAdjust="spacing" textLength="78.9981" x="246.4" y="207.8795">location : Location</text><line style="stroke:#181818;stroke-width:0.35;" x1="233.1" x2="410.0353" y1="213.1391" y2="213.1391"/><ellipse cx="240.1" cy="223.5064" fill="#84BE84" rx="2.1" ry="2.1" style="stroke:#038048;stroke-width:0.7;"/><text fill="#000000" font-family="sans-serif" font-size="9.8" lengthAdjust="spacing" textLength="56.1012" x="246.4" y="226.5143">sleep() : void</text><ellipse cx="240.1" cy="236.5412" fill="#84BE84" rx="2.1" ry="2.1" style="stroke:#038048;stroke-width:0.7;"/><text fill="#000000" font-family="sans-serif" font-size="9.8" lengthAdjust="spacing" textLength="68.0784" x="246.4" y="239.549">wakeUp() : void</text><ellipse cx="240.1" cy="249.576" fill="#84BE84" rx="2.1" ry="2.1" style="stroke:#038048;stroke-width:0.7;"/><text fill="#000000" font-family="sans-serif" font-size="9.8" lengthAdjust="spacing" textLength="160.1353" x="246.4" y="252.5838">act(environment: Environment) : void</text><ellipse cx="240.1" cy="262.6107" fill="#84BE84" rx="2.1" ry="2.1" style="stroke:#038048;stroke-width:0.7;"/><text fill="#000000" font-family="sans-serif" font-size="9.8" lengthAdjust="spacing" textLength="117.1167" x="246.4" y="265.6186">think(thought: String) : void</text><ellipse cx="240.1" cy="275.6455" fill="#84BE84" rx="2.1" ry="2.1" style="stroke:#038048;stroke-width:0.7;"/><text fill="#000000" font-family="sans-serif" font-size="9.8" lengthAdjust="spacing" textLength="134.5251" x="246.4" y="278.6533">remember(action: String) : void</text><ellipse cx="240.1" cy="288.6803" fill="#84BE84" rx="2.1" ry="2.1" style="stroke:#038048;stroke-width:0.7;"/><text fill="#000000" font-family="sans-serif" font-size="9.8" lengthAdjust="spacing" textLength="138.9083" x="246.4" y="291.6881">understand(action: String) : void</text><ellipse cx="240.1" cy="301.715" fill="#84BE84" rx="2.1" ry="2.1" style="stroke:#038048;stroke-width:0.7;"/><text fill="#000000" font-family="sans-serif" font-size="9.8" lengthAdjust="spacing" textLength="159.6089" x="246.4" y="304.7229">dontUnderstand(action: String) : void</text><ellipse cx="240.1" cy="314.7498" fill="#84BE84" rx="2.1" ry="2.1" style="stroke:#038048;stroke-width:0.7;"/><text fill="#000000" font-family="sans-serif" font-size="9.8" lengthAdjust="spacing" textLength="112.7718" x="246.4" y="317.7576">hear(sound: Sound) : void</text><ellipse cx="240.1" cy="327.7846" fill="#84BE84" rx="2.1" ry="2.1" style="stroke:#038048;stroke-width:0.7;"/><text fill="#000000" font-family="sans-serif" font-size="9.8" lengthAdjust="spacing" textLength="122.5574" x="246.4" y="330.7924">feel(state: EntityState) : void</text><ellipse cx="240.1" cy="340.8193" fill="#84BE84" rx="2.1" ry="2.1" style="stroke:#038048;stroke-width:0.7;"/><text fill="#000000" font-family="sans-serif" font-size="9.8" lengthAdjust="spacing" textLength="105.6706" x="246.4" y="343.8271">feel(action: String) : void</text><ellipse cx="240.1" cy="353.8541" fill="#84BE84" rx="2.1" ry="2.1" style="stroke:#038048;stroke-width:0.7;"/><text fill="#000000" font-family="sans-serif" font-size="9.8" lengthAdjust="spacing" textLength="144.8945" x="246.4" y="356.8619">dontFeel(state: EntityState) : void</text><ellipse cx="240.1" cy="366.8889" fill="#84BE84" rx="2.1" ry="2.1" style="stroke:#038048;stroke-width:0.7;"/><text fill="#000000" font-family="sans-serif" font-size="9.8" lengthAdjust="spacing" textLength="128.0077" x="246.4" y="369.8967">dontFeel(action: String) : void</text><ellipse cx="240.1" cy="379.9236" fill="#84BE84" rx="2.1" ry="2.1" style="stroke:#038048;stroke-width:0.7;"/><text fill="#000000" font-family="sans-serif" font-size="9.8" lengthAdjust="spacing" textLength="138.3724" x="246.4" y="382.9314">equals(object: Object) : boolean</text><ellipse cx="240.1" cy="392.9584" fill="#84BE84" rx="2.1" ry="2.1" style="stroke:#038048;stroke-width:0.7;"/><text fill="#000000" font-family="sans-serif" font-size="9.8" lengthAdjust="spacing" textLength="69.7245" x="246.4" y="395.9662">hashCode() : int</text><ellipse cx="240.1" cy="405.9932" fill="#84BE84" rx="2.1" ry="2.1" style="stroke:#038048;stroke-width:0.7;"/><text fill="#000000" font-family="sans-serif" font-size="9.8" lengthAdjust="spacing" textLength="74.0694" x="246.4" y="409.001">toString() : String</text></g><!--class Environment--><g class="entity" data-entity="Environment" data-source-line="65" data-uid="ent0011" id="entity_Environment"><rect fill="#F1F1F1" height="85.7391" rx="1.75" ry="1.75" style="stroke:#181818;stroke-width:0.35;" width="107.5197" x="754.25" y="4.9"/><ellipse cx="778.2972" cy="16.1" fill="#ADD1B2" rx="7.7" ry="7.7" style="stroke:#181818;stroke-width:0.7;"/><path d="M780.2331,13.2125 Q780.3425,13.0594 780.4737,12.9828 Q780.605,12.9062 780.7581,12.9062 Q781.0206,12.9062 781.1847,13.0922 Q781.3487,13.2672 781.3487,13.6937 L781.3487,14.7109 Q781.3487,15.1375 781.1847,15.3234 Q781.0206,15.5094 780.7581,15.5094 Q780.5175,15.5094 780.3753,15.3672 Q780.2331,15.2359 780.1565,14.875 Q780.1237,14.6234 779.9925,14.4922 Q779.7628,14.2297 779.3362,14.0766 Q778.9097,13.9234 778.4722,13.9234 Q777.9362,13.9234 777.4878,14.1531 Q777.0503,14.3828 776.7003,14.9078 Q776.3612,15.4328 776.3612,16.1547 L776.3612,16.9203 Q776.3612,17.7844 776.9847,18.3641 Q777.6081,18.9328 778.7237,18.9328 Q779.38,18.9328 779.8393,18.7578 Q780.1128,18.6484 780.4081,18.3422 Q780.594,18.1562 780.6925,18.1016 Q780.8018,18.0469 780.944,18.0469 Q781.1737,18.0469 781.3487,18.2328 Q781.5347,18.4078 781.5347,18.6484 Q781.5347,18.8891 781.294,19.1734 Q780.944,19.5781 780.3862,19.8078 Q779.6315,20.125 778.7237,20.125 Q777.6628,20.125 776.8206,19.6875 Q776.1315,19.3375 775.6503,18.5937 Q775.169,17.8391 775.169,16.9422 L775.169,16.1328 Q775.169,15.2031 775.5956,14.4047 Q776.0331,13.5953 776.7987,13.1687 Q777.5643,12.7312 778.4284,12.7312 Q778.9425,12.7312 779.3909,12.8516 Q779.8503,12.9609 780.2331,13.2125 Z " fill="#000000"/><text fill="#000000" font-family="sans-serif" font-size="9.8" lengthAdjust="spacing" textLength="55.0149" x="791.1076" y="20.1578">Environment</text><line style="stroke:#181818;stroke-width:0.35;" x1="754.95" x2="861.0697" y1="27.3" y2="27.3"/><rect fill="none" height="4.2" style="stroke:#C82930;stroke-width:0.7;" width="4.2" x="759.85" y="35.5674"/><text fill="#000000" font-family="sans-serif" font-size="9.8" lengthAdjust="spacing" textLength="65.3557" x="768.25" y="40.6752">rocket : Rocket</text><rect fill="none" height="4.2" style="stroke:#C82930;stroke-width:0.7;" width="4.2" x="759.85" y="48.6021"/><text fill="#000000" font-family="sans-serif" font-size="9.8" lengthAdjust="spacing" textLength="58.2832" x="768.25" y="53.71">name : String</text><line style="stroke:#181818;stroke-width:0.35;" x1="754.95" x2="861.0697" y1="58.9695" y2="58.9695"/><ellipse cx="761.95" cy="69.3369" fill="#84BE84" rx="2.1" ry="2.1" style="stroke:#038048;stroke-width:0.7;"/><text fill="#000000" font-family="sans-serif" font-size="9.8" lengthAdjust="spacing" textLength="89.3197" x="768.25" y="72.3447">getRocket() : Rocket</text><ellipse cx="761.95" cy="82.3717" fill="#84BE84" rx="2.1" ry="2.1" style="stroke:#038048;stroke-width:0.7;"/><text fill="#000000" font-family="sans-serif" font-size="9.8" lengthAdjust="spacing" textLength="80.0604" x="768.25" y="85.3795">getName() : String</text></g><!--class Rocket--><g class="entity" data-entity="Rocket" data-source-line="76" data-uid="ent0012" id="entity_Rocket"><rect fill="#F1F1F1" height="137.8781" rx="1.75" ry="1.75" style="stroke:#181818;stroke-width:0.35;" width="156.5724" x="729.75" y="204.75"/><ellipse cx="789.8109" cy="215.95" fill="#ADD1B2" rx="7.7" ry="7.7" style="stroke:#181818;stroke-width:0.7;"/><path d="M791.7468,213.0625 Q791.8562,212.9094 791.9875,212.8328 Q792.1187,212.7562 792.2718,212.7562 Q792.5343,212.7562 792.6984,212.9422 Q792.8625,213.1172 792.8625,213.5437 L792.8625,214.5609 Q792.8625,214.9875 792.6984,215.1734 Q792.5343,215.3594 792.2718,215.3594 Q792.0312,215.3594 791.889,215.2172 Q791.7468,215.0859 791.6703,214.725 Q791.6375,214.4734 791.5062,214.3422 Q791.2765,214.0797 790.85,213.9266 Q790.4234,213.7734 789.9859,213.7734 Q789.45,213.7734 789.0015,214.0031 Q788.564,214.2328 788.214,214.7578 Q787.875,215.2828 787.875,216.0047 L787.875,216.7703 Q787.875,217.6344 788.4984,218.2141 Q789.1218,218.7828 790.2375,218.7828 Q790.8937,218.7828 791.3531,218.6078 Q791.6265,218.4984 791.9218,218.1922 Q792.1078,218.0062 792.2062,217.9516 Q792.3156,217.8969 792.4578,217.8969 Q792.6875,217.8969 792.8625,218.0828 Q793.0484,218.2578 793.0484,218.4984 Q793.0484,218.7391 792.8078,219.0234 Q792.4578,219.4281 791.9,219.6578 Q791.1453,219.975 790.2375,219.975 Q789.1765,219.975 788.3343,219.5375 Q787.6453,219.1875 787.164,218.4437 Q786.6828,217.6891 786.6828,216.7922 L786.6828,215.9828 Q786.6828,215.0531 787.1093,214.2547 Q787.5468,213.4453 788.3125,213.0187 Q789.0781,212.5812 789.9421,212.5812 Q790.4562,212.5812 790.9046,212.7016 Q791.364,212.8109 791.7468,213.0625 Z " fill="#000000"/><text fill="#000000" font-family="sans-serif" font-size="9.8" lengthAdjust="spacing" textLength="30.5006" x="804.1609" y="220.0078">Rocket</text><line style="stroke:#181818;stroke-width:0.35;" x1="730.45" x2="885.6224" y1="227.15" y2="227.15"/><rect fill="none" height="4.2" style="stroke:#C82930;stroke-width:0.7;" width="4.2" x="735.35" y="235.4174"/><text fill="#000000" font-family="sans-serif" font-size="9.8" lengthAdjust="spacing" textLength="76.261" x="743.75" y="240.5252">state : FlightState</text><rect fill="none" height="4.2" style="stroke:#C82930;stroke-width:0.7;" width="4.2" x="735.35" y="248.4521"/><text fill="#000000" font-family="sans-serif" font-size="9.8" lengthAdjust="spacing" textLength="68.1119" x="743.75" y="253.56">engine : Engine</text><line style="stroke:#181818;stroke-width:0.35;" x1="730.45" x2="885.6224" y1="258.8195" y2="258.8195"/><ellipse cx="737.45" cy="269.1869" fill="#84BE84" rx="2.1" ry="2.1" style="stroke:#038048;stroke-width:0.7;"/><text fill="#000000" font-family="sans-serif" font-size="9.8" lengthAdjust="spacing" textLength="75.6964" x="743.75" y="272.1947">startFlight() : void</text><ellipse cx="737.45" cy="282.2217" fill="#84BE84" rx="2.1" ry="2.1" style="stroke:#038048;stroke-width:0.7;"/><text fill="#000000" font-family="sans-serif" font-size="9.8" lengthAdjust="spacing" textLength="88.7886" x="743.75" y="285.2295">isInFlight() : boolean</text><ellipse cx="737.45" cy="295.2564" fill="#84BE84" rx="2.1" ry="2.1" style="stroke:#038048;stroke-width:0.7;"/><text fill="#000000" font-family="sans-serif" font-size="9.8" lengthAdjust="spacing" textLength="89.3484" x="743.75" y="298.2643">getEngine() : Engine</text><ellipse cx="737.45" cy="308.2912" fill="#84BE84" rx="2.1" ry="2.1" style="stroke:#038048;stroke-width:0.7;"/><text fill="#000000" font-family="sans-serif" font-size="9.8" lengthAdjust="spacing" textLength="138.3724" x="743.75" y="311.299">equals(object: Object) : boolean</text><ellipse cx="737.45" cy="321.326" fill="#84BE84" rx="2.1" ry="2.1" style="stroke:#038048;stroke-width:0.7;"/><text fill="#000000" font-family="sans-serif" font-size="9.8" lengthAdjust="spacing" textLength="69.7245" x="743.75" y="324.3338">hashCode() : int</text><ellipse cx="737.45" cy="334.3607" fill="#84BE84" rx="2.1" ry="2.1" style="stroke:#038048;stroke-width:0.7;"/><text fill="#000000" font-family="sans-serif" font-size="9.8" lengthAdjust="spacing" textLength="74.0694" x="743.75" y="337.3686">toString() : String</text></g><!--class Engine--><g class="entity" data-entity="Engine" data-source-line="87" data-uid="ent0013" id="entity_Engine"><rect fill="#F1F1F1" height="98.7738" rx="1.75" ry="1.75" style="stroke:#181818;stroke-width:0.35;" width="156.5724" x="633.15" y="469.7"/><ellipse cx="693.2037" cy="480.9" fill="#ADD1B2" rx="7.7" ry="7.7" style="stroke:#181818;stroke-width:0.7;"/><path d="M695.1396,478.0125 Q695.249,477.8594 695.3803,477.7828 Q695.5115,477.7062 695.6646,477.7062 Q695.9271,477.7062 696.0912,477.8922 Q696.2553,478.0672 696.2553,478.4937 L696.2553,479.5109 Q696.2553,479.9375 696.0912,480.1234 Q695.9271,480.3094 695.6646,480.3094 Q695.424,480.3094 695.2818,480.1672 Q695.1396,480.0359 695.0631,479.675 Q695.0303,479.4234 694.899,479.2922 Q694.6693,479.0297 694.2428,478.8766 Q693.8162,478.7234 693.3787,478.7234 Q692.8428,478.7234 692.3943,478.9531 Q691.9568,479.1828 691.6068,479.7078 Q691.2678,480.2328 691.2678,480.9547 L691.2678,481.7203 Q691.2678,482.5844 691.8912,483.1641 Q692.5146,483.7328 693.6303,483.7328 Q694.2865,483.7328 694.7459,483.5578 Q695.0193,483.4484 695.3146,483.1422 Q695.5006,482.9562 695.599,482.9016 Q695.7084,482.8469 695.8506,482.8469 Q696.0803,482.8469 696.2553,483.0328 Q696.4412,483.2078 696.4412,483.4484 Q696.4412,483.6891 696.2006,483.9734 Q695.8506,484.3781 695.2928,484.6078 Q694.5381,484.925 693.6303,484.925 Q692.5693,484.925 691.7271,484.4875 Q691.0381,484.1375 690.5568,483.3937 Q690.0756,482.6391 690.0756,481.7422 L690.0756,480.9328 Q690.0756,480.0031 690.5021,479.2047 Q690.9396,478.3953 691.7053,477.9687 Q692.4709,477.5312 693.335,477.5312 Q693.849,477.5312 694.2975,477.6516 Q694.7568,477.7609 695.1396,478.0125 Z " fill="#000000"/><text fill="#000000" font-family="sans-serif" font-size="9.8" lengthAdjust="spacing" textLength="30.5149" x="707.5537" y="484.9578">Engine</text><line style="stroke:#181818;stroke-width:0.35;" x1="633.85" x2="789.0224" y1="492.1" y2="492.1"/><rect fill="none" height="4.2" style="stroke:#C82930;stroke-width:0.7;" width="4.2" x="638.75" y="500.3674"/><text fill="#000000" font-family="sans-serif" font-size="9.8" lengthAdjust="spacing" textLength="63.2071" x="647.15" y="505.4752">sound : Sound</text><line style="stroke:#181818;stroke-width:0.35;" x1="633.85" x2="789.0224" y1="510.7348" y2="510.7348"/><ellipse cx="640.85" cy="521.1021" fill="#84BE84" rx="2.1" ry="2.1" style="stroke:#038048;stroke-width:0.7;"/><text fill="#000000" font-family="sans-serif" font-size="9.8" lengthAdjust="spacing" textLength="82.2568" x="647.15" y="524.11">getSound() : String</text><ellipse cx="640.85" cy="534.1369" fill="#84BE84" rx="2.1" ry="2.1" style="stroke:#038048;stroke-width:0.7;"/><text fill="#000000" font-family="sans-serif" font-size="9.8" lengthAdjust="spacing" textLength="138.3724" x="647.15" y="537.1447">equals(object: Object) : boolean</text><ellipse cx="640.85" cy="547.1717" fill="#84BE84" rx="2.1" ry="2.1" style="stroke:#038048;stroke-width:0.7;"/><text fill="#000000" font-family="sans-serif" font-size="9.8" lengthAdjust="spacing" textLength="69.7245" x="647.15" y="550.1795">hashCode() : int</text><ellipse cx="640.85" cy="560.2064" fill="#84BE84" rx="2.1" ry="2.1" style="stroke:#038048;stroke-width:0.7;"/><text fill="#000000" font-family="sans-serif" font-size="9.8" lengthAdjust="spacing" textLength="74.0694" x="647.15" y="563.2143">toString() : String</text></g><!--class Location--><g class="entity" data-entity="Location" data-source-line="102" data-uid="ent0016" id="entity_Location"><rect fill="#F1F1F1" height="55.4422" rx="1.75" ry="1.75" style="stroke:#181818;stroke-width:0.35;" width="66.6832" x="130.9" y="491.4"/><ellipse cx="144.6543" cy="507.0037" fill="#ADD1B2" rx="7.7" ry="7.7" style="stroke:#181818;stroke-width:0.7;"/><path d="M146.5902,504.1162 Q146.6996,503.9631 146.8308,503.8865 Q146.9621,503.81 147.1152,503.81 Q147.3777,503.81 147.5418,503.9959 Q147.7058,504.1709 147.7058,504.5975 L147.7058,505.6146 Q147.7058,506.0412 147.5418,506.2271 Q147.3777,506.4131 147.1152,506.4131 Q146.8746,506.4131 146.7324,506.2709 Q146.5902,506.1396 146.5137,505.7787 Q146.4808,505.5271 146.3496,505.3959 Q146.1199,505.1334 145.6933,504.9803 Q145.2668,504.8271 144.8293,504.8271 Q144.2933,504.8271 143.8449,505.0568 Q143.4074,505.2865 143.0574,505.8115 Q142.7183,506.3365 142.7183,507.0584 L142.7183,507.824 Q142.7183,508.6881 143.3418,509.2678 Q143.9652,509.8365 145.0808,509.8365 Q145.7371,509.8365 146.1965,509.6615 Q146.4699,509.5521 146.7652,509.2459 Q146.9512,509.06 147.0496,509.0053 Q147.159,508.9506 147.3012,508.9506 Q147.5308,508.9506 147.7058,509.1365 Q147.8918,509.3115 147.8918,509.5521 Q147.8918,509.7928 147.6512,510.0771 Q147.3012,510.4818 146.7433,510.7115 Q145.9887,511.0287 145.0808,511.0287 Q144.0199,511.0287 143.1777,510.5912 Q142.4887,510.2412 142.0074,509.4975 Q141.5262,508.7428 141.5262,507.8459 L141.5262,507.0365 Q141.5262,506.1068 141.9527,505.3084 Q142.3902,504.499 143.1558,504.0725 Q143.9215,503.635 144.7855,503.635 Q145.2996,503.635 145.748,503.7553 Q146.2074,503.8646 146.5902,504.1162 Z " fill="#000000"/><text fill="#000000" font-family="sans-serif" font-size="8.4" font-style="italic" lengthAdjust="spacing" textLength="33.1529" x="157.1267" y="503.9645">&#171;record&#187;</text><text fill="#000000" font-family="sans-serif" font-size="9.8" lengthAdjust="spacing" textLength="37.0515" x="155.1775" y="516.6479">Location</text><line style="stroke:#181818;stroke-width:0.35;" x1="131.6" x2="196.8832" y1="522.6074" y2="522.6074"/><text fill="#000000" font-family="sans-serif" font-size="9.8" lengthAdjust="spacing" textLength="58.2832" x="135.1" y="535.9826">name : String</text><line style="stroke:#181818;stroke-width:0.35;" x1="131.6" x2="196.8832" y1="541.2422" y2="541.2422"/></g><!--class Emotion--><g class="entity" data-entity="Emotion" data-source-line="111" data-uid="ent0018" id="entity_Emotion"><rect fill="#F1F1F1" height="85.7391" rx="1.75" ry="1.75" style="stroke:#181818;stroke-width:0.35;" width="67.2" x="222.25" y="476.35"/><ellipse cx="236.7321" cy="487.55" fill="#EB937F" rx="7.7" ry="7.7" style="stroke:#181818;stroke-width:0.7;"/><path d="M235.9337,488.1078 L235.9337,489.8578 L238.9634,489.8578 L238.9634,489.2125 Q238.9634,488.7859 239.1274,488.6 Q239.3024,488.4141 239.5649,488.4141 Q239.8274,488.4141 239.9915,488.6 Q240.1555,488.7859 240.1555,489.2125 L240.1555,491.05 L234.5555,491.05 Q234.118,491.05 233.9321,490.8859 Q233.7571,490.7219 233.7571,490.4484 Q233.7571,490.1859 233.943,490.0219 Q234.129,489.8578 234.5555,489.8578 L234.7415,489.8578 L234.7415,485.1984 L234.5555,485.1984 Q234.118,485.1984 233.9321,485.0344 Q233.7571,484.8703 233.7571,484.5969 Q233.7571,484.3344 233.9321,484.1703 Q234.118,484.0062 234.5555,484.0062 L239.893,484.0062 L239.893,485.8219 Q239.893,486.2484 239.729,486.4344 Q239.5759,486.6094 239.3024,486.6094 Q239.0399,486.6094 238.8759,486.4344 Q238.7118,486.2484 238.7118,485.8219 L238.7118,485.1984 L235.9337,485.1984 L235.9337,486.9156 L236.9727,486.9156 Q236.9727,486.4562 237.0602,486.325 Q237.2462,486.0406 237.5743,486.0406 Q237.8368,486.0406 238.0009,486.2266 Q238.1649,486.4016 238.1649,486.8281 L238.1649,488.2062 Q238.1649,488.5891 238.0774,488.7203 Q237.8915,488.9937 237.5743,488.9937 Q237.2462,488.9937 237.0602,488.7094 Q236.9727,488.5781 236.9727,488.1078 L235.9337,488.1078 Z " fill="#000000"/><text fill="#000000" font-family="sans-serif" font-size="9.8" lengthAdjust="spacing" textLength="35.9509" x="247.417" y="491.6078">Emotion</text><line style="stroke:#181818;stroke-width:0.35;" x1="222.95" x2="288.75" y1="498.75" y2="498.75"/><text fill="#000000" font-family="sans-serif" font-size="9.8" lengthAdjust="spacing" textLength="27.2275" x="226.45" y="512.1252">CALM</text><text fill="#000000" font-family="sans-serif" font-size="9.8" lengthAdjust="spacing" textLength="58.8" x="226.45" y="525.16">CONFUSION</text><text fill="#000000" font-family="sans-serif" font-size="9.8" lengthAdjust="spacing" textLength="19.0593" x="226.45" y="538.1947">JOY</text><text fill="#000000" font-family="sans-serif" font-size="9.8" lengthAdjust="spacing" textLength="29.9503" x="226.45" y="551.2295">PANIC</text><line style="stroke:#181818;stroke-width:0.35;" x1="222.95" x2="288.75" y1="556.4891" y2="556.4891"/></g><!--class FlightState--><g class="entity" data-entity="FlightState" data-source-line="118" data-uid="ent0019" id="entity_FlightState"><rect fill="#F1F1F1" height="59.6695" rx="1.75" ry="1.75" style="stroke:#181818;stroke-width:0.35;" width="69.2467" x="814.8" y="489.3"/><ellipse cx="825.3" cy="500.5" fill="#EB937F" rx="7.7" ry="7.7" style="stroke:#181818;stroke-width:0.7;"/><path d="M824.5016,501.0578 L824.5016,502.8078 L827.5312,502.8078 L827.5312,502.1625 Q827.5312,501.7359 827.6953,501.55 Q827.8703,501.3641 828.1328,501.3641 Q828.3953,501.3641 828.5594,501.55 Q828.7234,501.7359 828.7234,502.1625 L828.7234,504 L823.1234,504 Q822.6859,504 822.5,503.8359 Q822.325,503.6719 822.325,503.3984 Q822.325,503.1359 822.5109,502.9719 Q822.6969,502.8078 823.1234,502.8078 L823.3094,502.8078 L823.3094,498.1484 L823.1234,498.1484 Q822.6859,498.1484 822.5,497.9844 Q822.325,497.8203 822.325,497.5469 Q822.325,497.2844 822.5,497.1203 Q822.6859,496.9562 823.1234,496.9562 L828.4609,496.9562 L828.4609,498.7719 Q828.4609,499.1984 828.2969,499.3844 Q828.1437,499.5594 827.8703,499.5594 Q827.6078,499.5594 827.4437,499.3844 Q827.2797,499.1984 827.2797,498.7719 L827.2797,498.1484 L824.5016,498.1484 L824.5016,499.8656 L825.5406,499.8656 Q825.5406,499.4062 825.6281,499.275 Q825.8141,498.9906 826.1422,498.9906 Q826.4047,498.9906 826.5687,499.1766 Q826.7328,499.3516 826.7328,499.7781 L826.7328,501.1562 Q826.7328,501.5391 826.6453,501.6703 Q826.4594,501.9437 826.1422,501.9437 Q825.8141,501.9437 825.6281,501.6594 Q825.5406,501.5281 825.5406,501.0578 L824.5016,501.0578 Z " fill="#000000"/><text fill="#000000" font-family="sans-serif" font-size="9.8" lengthAdjust="spacing" textLength="46.8467" x="835.1" y="504.5578">FlightState</text><line style="stroke:#181818;stroke-width:0.35;" x1="815.5" x2="883.3467" y1="511.7" y2="511.7"/><text fill="#000000" font-family="sans-serif" font-size="9.8" lengthAdjust="spacing" textLength="53.3641" x="819" y="525.0752">ON_EARTH</text><text fill="#000000" font-family="sans-serif" font-size="9.8" lengthAdjust="spacing" textLength="50.0958" x="819" y="538.11">IN_FLIGHT</text><line style="stroke:#181818;stroke-width:0.35;" x1="815.5" x2="883.3467" y1="543.3695" y2="543.3695"/></g><!--class EntityState--><g class="entity" data-entity="EntityState" data-source-line="123" data-uid="ent0020" id="entity_EntityState"><rect fill="#F1F1F1" height="59.6695" rx="1.75" ry="1.75" style="stroke:#181818;stroke-width:0.35;" width="84.0916" x="52.15" y="243.95"/><ellipse cx="69.0847" cy="255.15" fill="#EB937F" rx="7.7" ry="7.7" style="stroke:#181818;stroke-width:0.7;"/><path d="M68.2863,255.7078 L68.2863,257.4578 L71.316,257.4578 L71.316,256.8125 Q71.316,256.3859 71.48,256.2 Q71.655,256.0141 71.9175,256.0141 Q72.18,256.0141 72.3441,256.2 Q72.5082,256.3859 72.5082,256.8125 L72.5082,258.65 L66.9082,258.65 Q66.4707,258.65 66.2847,258.4859 Q66.1097,258.3219 66.1097,258.0484 Q66.1097,257.7859 66.2957,257.6219 Q66.4816,257.4578 66.9082,257.4578 L67.0941,257.4578 L67.0941,252.7984 L66.9082,252.7984 Q66.4707,252.7984 66.2847,252.6344 Q66.1097,252.4703 66.1097,252.1969 Q66.1097,251.9344 66.2847,251.7703 Q66.4707,251.6062 66.9082,251.6062 L72.2457,251.6062 L72.2457,253.4219 Q72.2457,253.8484 72.0816,254.0344 Q71.9285,254.2094 71.655,254.2094 Q71.3925,254.2094 71.2285,254.0344 Q71.0644,253.8484 71.0644,253.4219 L71.0644,252.7984 L68.2863,252.7984 L68.2863,254.5156 L69.3254,254.5156 Q69.3254,254.0562 69.4129,253.925 Q69.5988,253.6406 69.9269,253.6406 Q70.1894,253.6406 70.3535,253.8266 Q70.5175,254.0016 70.5175,254.4281 L70.5175,255.8062 Q70.5175,256.1891 70.43,256.3203 Q70.2441,256.5937 69.9269,256.5937 Q69.5988,256.5937 69.4129,256.3094 Q69.3254,256.1781 69.3254,255.7078 L68.2863,255.7078 Z " fill="#000000"/><text fill="#000000" font-family="sans-serif" font-size="9.8" lengthAdjust="spacing" textLength="47.3922" x="80.3147" y="259.2078">EntityState</text><line style="stroke:#181818;stroke-width:0.35;" x1="52.85" x2="135.5416" y1="266.35" y2="266.35"/><text fill="#000000" font-family="sans-serif" font-size="9.8" lengthAdjust="spacing" textLength="43.0186" x="56.35" y="279.7252">GRAVITY</text><text fill="#000000" font-family="sans-serif" font-size="9.8" lengthAdjust="spacing" textLength="75.6916" x="56.35" y="292.76">ZERO_GRAVITY</text><line style="stroke:#181818;stroke-width:0.35;" x1="52.85" x2="135.5416" y1="298.0195" y2="298.0195"/></g><!--class Sound--><g class="entity" data-entity="Sound" data-source-line="128" data-uid="ent0021" id="entity_Sound"><rect fill="#F1F1F1" height="46.6348" rx="1.75" ry="1.75" style="stroke:#181818;stroke-width:0.35;" width="86.8144" x="668.15" y="611.1"/><ellipse cx="694.8845" cy="622.3" fill="#EB937F" rx="7.7" ry="7.7" style="stroke:#181818;stroke-width:0.7;"/><path d="M694.0861,622.8578 L694.0861,624.6078 L697.1157,624.6078 L697.1157,623.9625 Q697.1157,623.5359 697.2798,623.35 Q697.4548,623.1641 697.7173,623.1641 Q697.9798,623.1641 698.1439,623.35 Q698.3079,623.5359 698.3079,623.9625 L698.3079,625.8 L692.7079,625.8 Q692.2704,625.8 692.0845,625.6359 Q691.9095,625.4719 691.9095,625.1984 Q691.9095,624.9359 692.0954,624.7719 Q692.2814,624.6078 692.7079,624.6078 L692.8939,624.6078 L692.8939,619.9484 L692.7079,619.9484 Q692.2704,619.9484 692.0845,619.7844 Q691.9095,619.6203 691.9095,619.3469 Q691.9095,619.0844 692.0845,618.9203 Q692.2704,618.7562 692.7079,618.7562 L698.0454,618.7562 L698.0454,620.5719 Q698.0454,620.9984 697.8814,621.1844 Q697.7282,621.3594 697.4548,621.3594 Q697.1923,621.3594 697.0282,621.1844 Q696.8642,620.9984 696.8642,620.5719 L696.8642,619.9484 L694.0861,619.9484 L694.0861,621.6656 L695.1251,621.6656 Q695.1251,621.2062 695.2126,621.075 Q695.3986,620.7906 695.7267,620.7906 Q695.9892,620.7906 696.1532,620.9766 Q696.3173,621.1516 696.3173,621.5781 L696.3173,622.9562 Q696.3173,623.3391 696.2298,623.4703 Q696.0439,623.7437 695.7267,623.7437 Q695.3986,623.7437 695.2126,623.4594 Q695.1251,623.3281 695.1251,622.8578 L694.0861,622.8578 Z " fill="#000000"/><text fill="#000000" font-family="sans-serif" font-size="9.8" lengthAdjust="spacing" textLength="28.3377" x="708.2922" y="626.3578">Sound</text><line style="stroke:#181818;stroke-width:0.35;" x1="668.85" x2="754.2644" y1="633.5" y2="633.5"/><text fill="#000000" font-family="sans-serif" font-size="9.8" lengthAdjust="spacing" textLength="78.4144" x="672.35" y="646.8752">ENGINE_SOUND</text><line style="stroke:#181818;stroke-width:0.35;" x1="668.85" x2="754.2644" y1="652.1348" y2="652.1348"/></g><!--class NotInFlightException--><g class="entity" data-entity="NotInFlightException" data-source-line="140" data-uid="ent0026" id="entity_NotInFlightException"><rect fill="#F1F1F1" height="55.4422" rx="1.75" ry="1.75" style="stroke:#181818;stroke-width:0.35;" width="112.8251" x="314.3" y="491.4"/><ellipse cx="324.8" cy="507.0037" fill="#ADD1B2" rx="7.7" ry="7.7" style="stroke:#181818;stroke-width:0.7;"/><path d="M326.7359,504.1162 Q326.8453,503.9631 326.9766,503.8865 Q327.1078,503.81 327.2609,503.81 Q327.5234,503.81 327.6875,503.9959 Q327.8516,504.1709 327.8516,504.5975 L327.8516,505.6146 Q327.8516,506.0412 327.6875,506.2271 Q327.5234,506.4131 327.2609,506.4131 Q327.0203,506.4131 326.8781,506.2709 Q326.7359,506.1396 326.6594,505.7787 Q326.6266,505.5271 326.4953,505.3959 Q326.2656,505.1334 325.8391,504.9803 Q325.4125,504.8271 324.975,504.8271 Q324.4391,504.8271 323.9906,505.0568 Q323.5531,505.2865 323.2031,505.8115 Q322.8641,506.3365 322.8641,507.0584 L322.8641,507.824 Q322.8641,508.6881 323.4875,509.2678 Q324.1109,509.8365 325.2266,509.8365 Q325.8828,509.8365 326.3422,509.6615 Q326.6156,509.5521 326.9109,509.2459 Q327.0969,509.06 327.1953,509.0053 Q327.3047,508.9506 327.4469,508.9506 Q327.6766,508.9506 327.8516,509.1365 Q328.0375,509.3115 328.0375,509.5521 Q328.0375,509.7928 327.7969,510.0771 Q327.4469,510.4818 326.8891,510.7115 Q326.1344,511.0287 325.2266,511.0287 Q324.1656,511.0287 323.3234,510.5912 Q322.6344,510.2412 322.1531,509.4975 Q321.6719,508.7428 321.6719,507.8459 L321.6719,507.0365 Q321.6719,506.1068 322.0984,505.3084 Q322.5359,504.499 323.3016,504.0725 Q324.0672,503.635 324.9312,503.635 Q325.4453,503.635 325.8937,503.7553 Q326.3531,503.8646 326.7359,504.1162 Z " fill="#000000"/><text fill="#000000" font-family="sans-serif" font-size="8.4" font-style="italic" lengthAdjust="spacing" textLength="45.3018" x="357.1617" y="503.9645">&#171;exception&#187;</text><text fill="#000000" font-family="sans-serif" font-size="9.8" lengthAdjust="spacing" textLength="90.4251" x="334.6" y="516.6479">NotInFlightException</text><line style="stroke:#181818;stroke-width:0.35;" x1="315" x2="426.4251" y1="522.6074" y2="522.6074"/><line style="stroke:#181818;stroke-width:0.35;" x1="315" x2="426.4251" y1="528.2074" y2="528.2074"/><ellipse cx="322" cy="538.5748" fill="#84BE84" rx="2.1" ry="2.1" style="stroke:#038048;stroke-width:0.7;"/><text fill="#000000" font-family="sans-serif" font-size="9.8" lengthAdjust="spacing" textLength="93.6838" x="328.3" y="541.5826">getMessage() : String</text></g><!--class PanicException--><g class="entity" data-entity="PanicException" data-source-line="144" data-uid="ent0027" id="entity_PanicException"><rect fill="#F1F1F1" height="42.4074" rx="1.75" ry="1.75" style="stroke:#181818;stroke-width:0.35;" width="89.9521" x="451.5" y="497.7"/><ellipse cx="462" cy="513.3037" fill="#ADD1B2" rx="7.7" ry="7.7" style="stroke:#181818;stroke-width:0.7;"/><path d="M463.9359,510.4162 Q464.0453,510.2631 464.1766,510.1865 Q464.3078,510.11 464.4609,510.11 Q464.7234,510.11 464.8875,510.2959 Q465.0516,510.4709 465.0516,510.8975 L465.0516,511.9146 Q465.0516,512.3412 464.8875,512.5271 Q464.7234,512.7131 464.4609,512.7131 Q464.2203,512.7131 464.0781,512.5709 Q463.9359,512.4396 463.8594,512.0787 Q463.8266,511.8271 463.6953,511.6959 Q463.4656,511.4334 463.0391,511.2803 Q462.6125,511.1271 462.175,511.1271 Q461.6391,511.1271 461.1906,511.3568 Q460.7531,511.5865 460.4031,512.1115 Q460.0641,512.6365 460.0641,513.3584 L460.0641,514.124 Q460.0641,514.9881 460.6875,515.5678 Q461.3109,516.1365 462.4266,516.1365 Q463.0828,516.1365 463.5422,515.9615 Q463.8156,515.8521 464.1109,515.5459 Q464.2969,515.36 464.3953,515.3053 Q464.5047,515.2506 464.6469,515.2506 Q464.8766,515.2506 465.0516,515.4365 Q465.2375,515.6115 465.2375,515.8521 Q465.2375,516.0928 464.9969,516.3771 Q464.6469,516.7818 464.0891,517.0115 Q463.3344,517.3287 462.4266,517.3287 Q461.3656,517.3287 460.5234,516.8912 Q459.8344,516.5412 459.3531,515.7975 Q458.8719,515.0428 458.8719,514.1459 L458.8719,513.3365 Q458.8719,512.4068 459.2984,511.6084 Q459.7359,510.799 460.5016,510.3725 Q461.2672,509.935 462.1312,509.935 Q462.6453,509.935 463.0937,510.0553 Q463.5531,510.1646 463.9359,510.4162 Z " fill="#000000"/><text fill="#000000" font-family="sans-serif" font-size="8.4" font-style="italic" lengthAdjust="spacing" textLength="45.3018" x="482.9251" y="510.2645">&#171;exception&#187;</text><text fill="#000000" font-family="sans-serif" font-size="9.8" lengthAdjust="spacing" textLength="67.5521" x="471.8" y="522.9479">PanicException</text><line style="stroke:#181818;stroke-width:0.35;" x1="452.2" x2="540.7521" y1="528.9074" y2="528.9074"/><line style="stroke:#181818;stroke-width:0.35;" x1="452.2" x2="540.7521" y1="534.5074" y2="534.5074"/></g><!--reverse link Entity to Character--><g class="link" data-entity-1="Entity" data-entity-2="Character" data-source-line="57" data-uid="lnk7" id="link_Entity_Character"><path codeLine="57" d="M132.6213,86.3004 C160.1593,113.4884 193.704,146.629 232.288,184.737" fill="none" id="Entity-backto-Character" style="stroke:#181818;stroke-width:0.7;"/><polygon fill="none" points="123.655,77.448,129.6705,89.2892,135.5721,83.3116,123.655,77.448" style="stroke:#181818;stroke-width:0.7;"/></g><!--reverse link Memory to Character--><g class="link" data-entity-1="Memory" data-entity-2="Character" data-source-line="58" data-uid="lnk8" id="link_Memory_Character"><path codeLine="58" d="M303.0943,102.8257 C304.4733,115.4677 304.703,117.565 306.376,132.93" fill="none" id="Memory-backto-Character" style="stroke:#181818;stroke-width:0.7;stroke-dasharray:4.9,4.9;"/><polygon fill="none" points="301.728,90.3,298.9191,103.2811,307.2695,102.3703,301.728,90.3" style="stroke:#181818;stroke-width:0.7;"/></g><!--reverse link Feeling to Character--><g class="link" data-entity-1="Feeling" data-entity-2="Character" data-source-line="59" data-uid="lnk9" id="link_Feeling_Character"><path codeLine="59" d="M576.503,97.4469 C526.985,131.5509 466.844,172.984 410.963,211.477" fill="none" id="Feeling-backto-Character" style="stroke:#181818;stroke-width:0.7;stroke-dasharray:4.9,4.9;"/><polygon fill="none" points="586.88,90.3,574.1207,93.9878,578.8853,100.9059,586.88,90.3" style="stroke:#181818;stroke-width:0.7;"/></g><!--reverse link Hearing to Character--><g class="link" data-entity-1="Hearing" data-entity-2="Character" data-source-line="60" data-uid="lnk10" id="link_Hearing_Character"><path codeLine="60" d="M453.5196,81.4644 C441.2346,99.3144 430.192,115.346 410.998,143.227" fill="none" id="Hearing-backto-Character" style="stroke:#181818;stroke-width:0.7;stroke-dasharray:4.9,4.9;"/><polygon fill="none" points="460.663,71.085,450.0598,79.0832,456.9793,83.8455,460.663,71.085" style="stroke:#181818;stroke-width:0.7;"/></g><!--link Environment to Rocket--><g class="link" data-entity-1="Environment" data-entity-2="Rocket" data-source-line="96" data-uid="lnk14" id="link_Environment_Rocket"><path codeLine="96" d="M808.15,90.3 C808.15,122.437 808.15,163.226 808.15,200.515" fill="none" id="Environment-to-Rocket" style="stroke:#181818;stroke-width:0.7;"/><polygon fill="#181818" points="808.15,204.715,810.95,198.415,808.15,201.215,805.35,198.415,808.15,204.715" style="stroke:#181818;stroke-width:0.7;"/></g><!--reverse link Rocket to Engine--><g class="link" data-entity-1="Rocket" data-entity-2="Engine" data-source-line="97" data-uid="lnk15" id="link_Rocket_Engine"><path codeLine="97" d="M778.0227,350.4877 C762.0277,390.8707 745.248,433.258 730.842,469.637" fill="none" id="Rocket-backto-Engine" style="stroke:#181818;stroke-width:0.7;"/><polygon fill="#181818" points="781.116,342.678,776.9661,345.5518,778.0227,350.4877,782.1726,347.614,781.116,342.678" style="stroke:#181818;stroke-width:0.7;"/></g><!--link Character to Location--><g class="link" data-entity-1="Character" data-entity-2="Location" data-source-line="106" data-uid="lnk17" id="link_Character_Location"><path codeLine="106" d="M232.316,412.769 C212.947,442.771 196.7247,467.9009 183.8937,487.7669" fill="none" id="Character-to-Location" style="stroke:#181818;stroke-width:0.7;"/><polygon fill="#181818" points="181.615,491.295,187.3851,487.522,183.5139,488.3549,182.681,484.4837,181.615,491.295" style="stroke:#181818;stroke-width:0.7;"/></g><!--link Entity to EntityState--><g class="link" data-entity-1="Entity" data-entity-2="EntityState" data-source-line="132" data-uid="lnk22" id="link_Entity_EntityState"><path codeLine="132" d="M94.15,77.448 C94.15,120.547 94.15,196.63 94.15,239.708" fill="none" id="Entity-to-EntityState" style="stroke:#181818;stroke-width:0.7;"/><polygon fill="#181818" points="94.15,243.908,96.95,237.608,94.15,240.408,91.35,237.608,94.15,243.908" style="stroke:#181818;stroke-width:0.7;"/></g><!--link Character to Emotion--><g class="link" data-entity-1="Character" data-entity-2="Emotion" data-source-line="133" data-uid="lnk23" id="link_Character_Emotion"><path codeLine="133" d="M283.85,414.54 C277.809,436.947 273.0859,454.459 268.3329,472.078" fill="none" id="Character-to-Emotion" style="stroke:#181818;stroke-width:0.7;"/><polygon fill="#181818" points="267.239,476.133,271.5832,470.7797,268.1506,472.7538,266.1765,469.3212,267.239,476.133" style="stroke:#181818;stroke-width:0.7;"/></g><!--link Engine to Sound--><g class="link" data-entity-1="Engine" data-entity-2="Sound" data-source-line="134" data-uid="lnk24" id="link_Engine_Sound"><path codeLine="134" d="M711.55,568.47 C711.55,583.247 711.55,594.587 711.55,606.809" fill="none" id="Engine-to-Sound" style="stroke:#181818;stroke-width:0.7;"/><polygon fill="#181818" points="711.55,611.009,714.35,604.709,711.55,607.509,708.75,604.709,711.55,611.009" style="stroke:#181818;stroke-width:0.7;"/></g><!--link Rocket to FlightState--><g class="link" data-entity-1="Rocket" data-entity-2="FlightState" data-source-line="135" data-uid="lnk25" id="link_Rocket_FlightState"><path codeLine="135" d="M819.707,342.678 C827.869,390.887 837.6961,448.9339 843.7861,484.9139" fill="none" id="Rocket-to-FlightState" style="stroke:#181818;stroke-width:0.7;"/><polygon fill="#181818" points="844.487,489.055,846.1963,482.3761,843.9029,485.6041,840.6749,483.3106,844.487,489.055" style="stroke:#181818;stroke-width:0.7;"/></g><!--link Character to NotInFlightException--><g class="link" data-entity-1="Character" data-entity-2="NotInFlightException" data-source-line="146" data-uid="lnk28" id="link_Character_NotInFlightException"><path codeLine="146" d="M349.797,414.54 C355.684,443.849 360.4566,467.6053 364.3696,487.0793" fill="none" id="Character-to-NotInFlightException" style="stroke:#181818;stroke-width:0.7;stroke-dasharray:4.9,4.9;"/><polygon fill="#181818" points="365.197,491.197,366.701,484.4689,364.5075,487.7656,361.2108,485.572,365.197,491.197" style="stroke:#181818;stroke-width:0.7;"/><text fill="#000000" font-family="sans-serif" font-size="9.1" lengthAdjust="spacing" textLength="26.8023" x="357.35" y="445.9198">throws</text></g><!--link Character to PanicException--><g class="link" data-entity-1="Character" data-entity-2="PanicException" data-source-line="147" data-uid="lnk29" id="link_Character_PanicException"><path codeLine="147" d="M410.942,398.874 C438.417,437.171 463.199,471.7192 479.362,494.2522" fill="none" id="Character-to-PanicException" style="stroke:#181818;stroke-width:0.7;stroke-dasharray:4.9,4.9;"/><polygon fill="#181818" points="481.81,497.665,480.4132,490.9138,479.77,494.821,475.8628,494.1778,481.81,497.665" style="stroke:#181818;stroke-width:0.7;"/><text fill="#000000" font-family="sans-serif" font-size="9.1" lengthAdjust="spacing" textLength="26.8023" x="446.25" y="445.9198">throws</text></g><!--SRC=[pLRDRjD04BxdANnhIfGyG1KYHI5fWrgdIXeak4IEiurDazrYRreGHMe24WSGSEG4F48BjAIj0g-mVYDc_np7IkmUG6garZkpC-jlPhwPzPfnV_alisQmJ-my60UJu9ITiUjWmcR1EtPbi7CGVx7VxBiKhzaDEmExCRYiEipg-jIpR6hO0yltZIgcBdrXlCmOyClxrAB8s53Q5fV4HWuSiWWVkHx1GuGfjmY5TN0u8culyogJy5u8uZF0dh2Bu3HumoxOLI9C5rFaxLisCdRGa7WQOOuwBZx8KeUC-Wx0Q57FnVqGWJ3nq10DkyZB0cYNuEL68zn37eIBUubcFO9fEzKK0f_ZtK8MtzI07H2pFe7tWHj_BFUg8JI8UEs3c1NLM2Z68ZXXb8Q-TfkJGiFL0IPMzaimPZFEG_4VcFX7b7aCmWmeUfdWBMbOSInEIkHf9c9ho8aeSKWLy823u_IKAyNP0KA7F7KRHfUG0RAKVa1iIzblgwKCLZXa5nDmR1sWTbnvAzBVNLQcqEykyamOeMSZQ-1dIVSfiY6P3V5SZvKtvrY-Ko4z96e6VQGAGUI9Ggl8mzchnbpn99-VSosZHalnf528Q7KhnjIwhsFgbCQ0QNqQl6QNCF1cRCekKZiXmZ7T2nwn3n25W9fYiQf1Sdr4fOM8FcBCTqomZsSb4VetVjL06q_OcS6c1li9tJrbF-22WHdEReBtgQ581F6xfJPmeKdcTqiUuRwBvQt35wf9gULHQHhhIjUluyZ60YaWJdc8s8gUzwz91TdJzHBeTP2ynGpLQY4c8KMz_oFFv-p9vqkQ1AeIzu3zAYc9jMyYctYzrFhgiMeKYvxmA9LK7XR92RZcyvsZ2kTnCWE_yai4_jwoALmbDxA5Wey9JWYFXlfsK50gvUqTkMYOjNQhtZ25zB3nM3ntosQzmX4ArmWtbNl3x5JBpRqj8TJDJcsxlhcr5pf49fros6oM7zNtvE5Fgir6HokqYo23CgwQctMpscarskQ3o9ZYEOf-WYrcJzz-YdbS9UccgimLqIPB-IY3rC9tO_01qfoUO5buar3TWzNdDZfK941w7VA0aty7-RxLHqkRPzV2hhtYY2Xf2eNIyfTk6DJnoB4ViusT6rhz1G00]--></g></svg>